<mxfile host="65bd71144e">
    <diagram id="o22tfotaeh1zUfp4ML8R" name="Page-3">
        <mxGraphModel dx="886" dy="1638" grid="1" gridSize="10" guides="1" tooltips="1" connect="1" arrows="1" fold="1" page="1" pageScale="1" pageWidth="850" pageHeight="1100" math="0" shadow="0">
            <root>
                <mxCell id="0"/>
                <mxCell id="1" parent="0"/>
                <mxCell id="PxNk5GR4_ciGNvUZHqvv-2" value="Student" style="swimlane;fontStyle=1;align=center;verticalAlign=top;childLayout=stackLayout;horizontal=1;startSize=26;horizontalStack=0;resizeParent=1;resizeParentMax=0;resizeLast=0;collapsible=1;marginBottom=0;whiteSpace=wrap;html=1;" vertex="1" parent="1">
                    <mxGeometry x="370" y="-150" width="160" height="144" as="geometry">
                        <mxRectangle x="200" y="-100" width="80" height="30" as="alternateBounds"/>
                    </mxGeometry>
                </mxCell>
                <mxCell id="PxNk5GR4_ciGNvUZHqvv-3" value="&lt;div&gt;-studentID: string&lt;/div&gt;- name: string&lt;div&gt;&lt;div&gt;-username: string&lt;/div&gt;&lt;div&gt;- password: string&lt;/div&gt;&lt;div&gt;- email : string&lt;/div&gt;&lt;div&gt;&lt;br&gt;&lt;/div&gt;&lt;/div&gt;" style="text;strokeColor=none;fillColor=none;align=left;verticalAlign=top;spacingLeft=4;spacingRight=4;overflow=hidden;rotatable=0;points=[[0,0.5],[1,0.5]];portConstraint=eastwest;whiteSpace=wrap;html=1;" vertex="1" parent="PxNk5GR4_ciGNvUZHqvv-2">
                    <mxGeometry y="26" width="160" height="84" as="geometry"/>
                </mxCell>
                <mxCell id="PxNk5GR4_ciGNvUZHqvv-4" value="" style="line;strokeWidth=1;fillColor=none;align=left;verticalAlign=middle;spacingTop=-1;spacingLeft=3;spacingRight=3;rotatable=0;labelPosition=right;points=[];portConstraint=eastwest;strokeColor=inherit;" vertex="1" parent="PxNk5GR4_ciGNvUZHqvv-2">
                    <mxGeometry y="110" width="160" height="8" as="geometry"/>
                </mxCell>
                <mxCell id="PxNk5GR4_ciGNvUZHqvv-5" value="+ method(type): type" style="text;strokeColor=none;fillColor=none;align=left;verticalAlign=top;spacingLeft=4;spacingRight=4;overflow=hidden;rotatable=0;points=[[0,0.5],[1,0.5]];portConstraint=eastwest;whiteSpace=wrap;html=1;" vertex="1" parent="PxNk5GR4_ciGNvUZHqvv-2">
                    <mxGeometry y="118" width="160" height="26" as="geometry"/>
                </mxCell>
                <mxCell id="PxNk5GR4_ciGNvUZHqvv-6" value="Classroom" style="swimlane;fontStyle=1;align=center;verticalAlign=top;childLayout=stackLayout;horizontal=1;startSize=26;horizontalStack=0;resizeParent=1;resizeParentMax=0;resizeLast=0;collapsible=1;marginBottom=0;whiteSpace=wrap;html=1;" vertex="1" parent="1">
                    <mxGeometry x="70" y="-160" width="160" height="144" as="geometry">
                        <mxRectangle x="200" y="-100" width="80" height="30" as="alternateBounds"/>
                    </mxGeometry>
                </mxCell>
                <mxCell id="PxNk5GR4_ciGNvUZHqvv-7" value="-classromID : string&lt;div&gt;- name : string&lt;/div&gt;&lt;div&gt;- description : string&lt;/div&gt;" style="text;strokeColor=none;fillColor=none;align=left;verticalAlign=top;spacingLeft=4;spacingRight=4;overflow=hidden;rotatable=0;points=[[0,0.5],[1,0.5]];portConstraint=eastwest;whiteSpace=wrap;html=1;" vertex="1" parent="PxNk5GR4_ciGNvUZHqvv-6">
                    <mxGeometry y="26" width="160" height="84" as="geometry"/>
                </mxCell>
                <mxCell id="PxNk5GR4_ciGNvUZHqvv-8" value="" style="line;strokeWidth=1;fillColor=none;align=left;verticalAlign=middle;spacingTop=-1;spacingLeft=3;spacingRight=3;rotatable=0;labelPosition=right;points=[];portConstraint=eastwest;strokeColor=inherit;" vertex="1" parent="PxNk5GR4_ciGNvUZHqvv-6">
                    <mxGeometry y="110" width="160" height="8" as="geometry"/>
                </mxCell>
                <mxCell id="PxNk5GR4_ciGNvUZHqvv-9" value="+ method(type): type" style="text;strokeColor=none;fillColor=none;align=left;verticalAlign=top;spacingLeft=4;spacingRight=4;overflow=hidden;rotatable=0;points=[[0,0.5],[1,0.5]];portConstraint=eastwest;whiteSpace=wrap;html=1;" vertex="1" parent="PxNk5GR4_ciGNvUZHqvv-6">
                    <mxGeometry y="118" width="160" height="26" as="geometry"/>
                </mxCell>
                <mxCell id="PxNk5GR4_ciGNvUZHqvv-12" value="ARExprience" style="swimlane;fontStyle=1;align=center;verticalAlign=top;childLayout=stackLayout;horizontal=1;startSize=26;horizontalStack=0;resizeParent=1;resizeParentMax=0;resizeLast=0;collapsible=1;marginBottom=0;whiteSpace=wrap;html=1;" vertex="1" parent="1">
                    <mxGeometry x="70" y="80" width="160" height="144" as="geometry">
                        <mxRectangle x="200" y="-100" width="80" height="30" as="alternateBounds"/>
                    </mxGeometry>
                </mxCell>
                <mxCell id="PxNk5GR4_ciGNvUZHqvv-13" value="&lt;div&gt;- experienceID : string&lt;/div&gt;&lt;div&gt;- name : string&lt;/div&gt;&lt;div&gt;- description : string&lt;/div&gt;&lt;div&gt;- file : string&lt;/div&gt;" style="text;strokeColor=none;fillColor=none;align=left;verticalAlign=top;spacingLeft=4;spacingRight=4;overflow=hidden;rotatable=0;points=[[0,0.5],[1,0.5]];portConstraint=eastwest;whiteSpace=wrap;html=1;" vertex="1" parent="PxNk5GR4_ciGNvUZHqvv-12">
                    <mxGeometry y="26" width="160" height="84" as="geometry"/>
                </mxCell>
                <mxCell id="PxNk5GR4_ciGNvUZHqvv-14" value="" style="line;strokeWidth=1;fillColor=none;align=left;verticalAlign=middle;spacingTop=-1;spacingLeft=3;spacingRight=3;rotatable=0;labelPosition=right;points=[];portConstraint=eastwest;strokeColor=inherit;" vertex="1" parent="PxNk5GR4_ciGNvUZHqvv-12">
                    <mxGeometry y="110" width="160" height="8" as="geometry"/>
                </mxCell>
                <mxCell id="PxNk5GR4_ciGNvUZHqvv-15" value="+ method(type): type" style="text;strokeColor=none;fillColor=none;align=left;verticalAlign=top;spacingLeft=4;spacingRight=4;overflow=hidden;rotatable=0;points=[[0,0.5],[1,0.5]];portConstraint=eastwest;whiteSpace=wrap;html=1;" vertex="1" parent="PxNk5GR4_ciGNvUZHqvv-12">
                    <mxGeometry y="118" width="160" height="26" as="geometry"/>
                </mxCell>
                <mxCell id="PxNk5GR4_ciGNvUZHqvv-16" value="Teatcher" style="swimlane;fontStyle=1;align=center;verticalAlign=top;childLayout=stackLayout;horizontal=1;startSize=26;horizontalStack=0;resizeParent=1;resizeParentMax=0;resizeLast=0;collapsible=1;marginBottom=0;whiteSpace=wrap;html=1;" vertex="1" parent="1">
                    <mxGeometry x="360" y="80" width="160" height="144" as="geometry">
                        <mxRectangle x="200" y="-100" width="80" height="30" as="alternateBounds"/>
                    </mxGeometry>
                </mxCell>
                <mxCell id="PxNk5GR4_ciGNvUZHqvv-17" value="&lt;div&gt;-teatcherID: string&lt;/div&gt;- name: string&lt;div&gt;&lt;div&gt;-username: string&lt;/div&gt;&lt;div&gt;- password: string&lt;/div&gt;&lt;div&gt;- email : string&lt;/div&gt;&lt;div&gt;&lt;br&gt;&lt;/div&gt;&lt;/div&gt;" style="text;strokeColor=none;fillColor=none;align=left;verticalAlign=top;spacingLeft=4;spacingRight=4;overflow=hidden;rotatable=0;points=[[0,0.5],[1,0.5]];portConstraint=eastwest;whiteSpace=wrap;html=1;" vertex="1" parent="PxNk5GR4_ciGNvUZHqvv-16">
                    <mxGeometry y="26" width="160" height="84" as="geometry"/>
                </mxCell>
                <mxCell id="PxNk5GR4_ciGNvUZHqvv-18" value="" style="line;strokeWidth=1;fillColor=none;align=left;verticalAlign=middle;spacingTop=-1;spacingLeft=3;spacingRight=3;rotatable=0;labelPosition=right;points=[];portConstraint=eastwest;strokeColor=inherit;" vertex="1" parent="PxNk5GR4_ciGNvUZHqvv-16">
                    <mxGeometry y="110" width="160" height="8" as="geometry"/>
                </mxCell>
                <mxCell id="PxNk5GR4_ciGNvUZHqvv-19" value="+ method(type): type" style="text;strokeColor=none;fillColor=none;align=left;verticalAlign=top;spacingLeft=4;spacingRight=4;overflow=hidden;rotatable=0;points=[[0,0.5],[1,0.5]];portConstraint=eastwest;whiteSpace=wrap;html=1;" vertex="1" parent="PxNk5GR4_ciGNvUZHqvv-16">
                    <mxGeometry y="118" width="160" height="26" as="geometry"/>
                </mxCell>
                <mxCell id="PxNk5GR4_ciGNvUZHqvv-23" value="" style="endArrow=none;startArrow=none;endFill=0;startFill=0;endSize=8;html=1;verticalAlign=bottom;labelBackgroundColor=none;strokeWidth=3;exitX=0.5;exitY=0;exitDx=0;exitDy=0;entryX=0.484;entryY=0.907;entryDx=0;entryDy=0;entryPerimeter=0;" edge="1" parent="1" source="PxNk5GR4_ciGNvUZHqvv-12" target="PxNk5GR4_ciGNvUZHqvv-9">
                    <mxGeometry width="160" relative="1" as="geometry">
                        <mxPoint x="140" y="20" as="sourcePoint"/>
                        <mxPoint x="300" y="20" as="targetPoint"/>
                    </mxGeometry>
                </mxCell>
                <mxCell id="PxNk5GR4_ciGNvUZHqvv-24" value="1,1" style="edgeLabel;html=1;align=center;verticalAlign=middle;resizable=0;points=[];" vertex="1" connectable="0" parent="PxNk5GR4_ciGNvUZHqvv-23">
                    <mxGeometry x="-0.883" y="-1" relative="1" as="geometry">
                        <mxPoint as="offset"/>
                    </mxGeometry>
                </mxCell>
                <mxCell id="PxNk5GR4_ciGNvUZHqvv-26" value="0,n" style="edgeLabel;html=1;align=center;verticalAlign=middle;resizable=0;points=[];" vertex="1" connectable="0" parent="PxNk5GR4_ciGNvUZHqvv-23">
                    <mxGeometry x="0.5949" y="3" relative="1" as="geometry">
                        <mxPoint y="-11" as="offset"/>
                    </mxGeometry>
                </mxCell>
                <mxCell id="PxNk5GR4_ciGNvUZHqvv-27" value="" style="endArrow=none;startArrow=none;endFill=0;startFill=0;endSize=8;html=1;verticalAlign=bottom;labelBackgroundColor=none;strokeWidth=3;exitX=1.005;exitY=0.632;exitDx=0;exitDy=0;exitPerimeter=0;entryX=0;entryY=0.5;entryDx=0;entryDy=0;" edge="1" parent="1" source="PxNk5GR4_ciGNvUZHqvv-7" target="PxNk5GR4_ciGNvUZHqvv-3">
                    <mxGeometry width="160" relative="1" as="geometry">
                        <mxPoint x="240" y="20" as="sourcePoint"/>
                        <mxPoint x="400" y="20" as="targetPoint"/>
                    </mxGeometry>
                </mxCell>
                <mxCell id="PxNk5GR4_ciGNvUZHqvv-28" value="0,n" style="edgeLabel;html=1;align=center;verticalAlign=middle;resizable=0;points=[];" vertex="1" connectable="0" parent="PxNk5GR4_ciGNvUZHqvv-27">
                    <mxGeometry x="-0.8077" y="2" relative="1" as="geometry">
                        <mxPoint as="offset"/>
                    </mxGeometry>
                </mxCell>
                <mxCell id="PxNk5GR4_ciGNvUZHqvv-29" value="0,n" style="edgeLabel;html=1;align=center;verticalAlign=middle;resizable=0;points=[];" vertex="1" connectable="0" parent="PxNk5GR4_ciGNvUZHqvv-27">
                    <mxGeometry x="0.7544" y="-1" relative="1" as="geometry">
                        <mxPoint as="offset"/>
                    </mxGeometry>
                </mxCell>
                <mxCell id="PxNk5GR4_ciGNvUZHqvv-30" value="" style="edgeStyle=elbowEdgeStyle;html=1;endArrow=none;elbow=vertical;entryX=0.5;entryY=0;entryDx=0;entryDy=0;exitX=0.859;exitY=0.843;exitDx=0;exitDy=0;exitPerimeter=0;" edge="1" parent="1" source="PxNk5GR4_ciGNvUZHqvv-9" target="PxNk5GR4_ciGNvUZHqvv-16">
                    <mxGeometry width="160" relative="1" as="geometry">
                        <mxPoint x="210" y="40.5" as="sourcePoint"/>
                        <mxPoint x="370" y="40.5" as="targetPoint"/>
                    </mxGeometry>
                </mxCell>
                <mxCell id="PxNk5GR4_ciGNvUZHqvv-31" value="1,1" style="edgeLabel;html=1;align=center;verticalAlign=middle;resizable=0;points=[];" vertex="1" connectable="0" parent="PxNk5GR4_ciGNvUZHqvv-30">
                    <mxGeometry x="-0.8622" y="-1" relative="1" as="geometry">
                        <mxPoint as="offset"/>
                    </mxGeometry>
                </mxCell>
                <mxCell id="PxNk5GR4_ciGNvUZHqvv-32" value="0,n" style="edgeLabel;html=1;align=center;verticalAlign=middle;resizable=0;points=[];" vertex="1" connectable="0" parent="PxNk5GR4_ciGNvUZHqvv-30">
                    <mxGeometry x="0.9043" relative="1" as="geometry">
                        <mxPoint as="offset"/>
                    </mxGeometry>
                </mxCell>
                <mxCell id="PxNk5GR4_ciGNvUZHqvv-33" value="AR4Learn" style="swimlane;" vertex="1" parent="1">
                    <mxGeometry x="50" y="-190" width="520" height="450" as="geometry"/>
                </mxCell>
            </root>
        </mxGraphModel>
    </diagram>
    <diagram id="yT496SsNTxTu47bqVSSu" name="Page-2">
        <mxGraphModel dx="1280" dy="778" grid="1" gridSize="10" guides="1" tooltips="1" connect="1" arrows="1" fold="1" page="1" pageScale="1" pageWidth="850" pageHeight="1100" math="0" shadow="0">
            <root>
                <mxCell id="0"/>
                <mxCell id="1" parent="0"/>
                <mxCell id="Ko_WbHw4z3wD8vxtBP1W-2" value="Student" style="shape=umlActor;verticalLabelPosition=bottom;verticalAlign=top;outlineConnect=0;labelBackgroundColor=none;fontColor=light-dark(#000000,#EDEDED);strokeWidth=3;html=1;spacing=3;spacingTop=0;fontSize=12;" vertex="1" parent="1">
                    <mxGeometry x="60" y="440" width="30" height="60" as="geometry"/>
                </mxCell>
                <mxCell id="Ko_WbHw4z3wD8vxtBP1W-8" value="AR4Learn" style="shape=umlFrame;whiteSpace=wrap;html=1;pointerEvents=0;recursiveResize=0;container=1;collapsible=0;width=160;" vertex="1" parent="1">
                    <mxGeometry x="130" width="710" height="750" as="geometry"/>
                </mxCell>
                <mxCell id="Ko_WbHw4z3wD8vxtBP1W-17" value="Authenticate" style="shape=ellipse;html=1;strokeWidth=3;fontStyle=1;whiteSpace=wrap;align=center;perimeter=ellipsePerimeter;" vertex="1" parent="Ko_WbHw4z3wD8vxtBP1W-8">
                    <mxGeometry x="350" y="90" width="120" height="60" as="geometry"/>
                </mxCell>
                <mxCell id="Ko_WbHw4z3wD8vxtBP1W-18" value="&amp;lt;&amp;lt;include&amp;gt;&amp;gt;" style="html=1;verticalAlign=bottom;labelBackgroundColor=none;endArrow=open;endFill=0;dashed=1;" edge="1" parent="Ko_WbHw4z3wD8vxtBP1W-8" source="Ko_WbHw4z3wD8vxtBP1W-15" target="Ko_WbHw4z3wD8vxtBP1W-17">
                    <mxGeometry width="160" relative="1" as="geometry">
                        <mxPoint x="180" y="230" as="sourcePoint"/>
                        <mxPoint x="340" y="230" as="targetPoint"/>
                        <Array as="points">
                            <mxPoint x="280" y="150"/>
                        </Array>
                    </mxGeometry>
                </mxCell>
                <mxCell id="Ko_WbHw4z3wD8vxtBP1W-20" value="&amp;lt;&amp;lt;include&amp;gt;&amp;gt;" style="html=1;verticalAlign=bottom;labelBackgroundColor=none;endArrow=open;endFill=0;dashed=1;exitX=1;exitY=0.5;exitDx=0;exitDy=0;entryX=0.5;entryY=1;entryDx=0;entryDy=0;" edge="1" parent="Ko_WbHw4z3wD8vxtBP1W-8" source="Ko_WbHw4z3wD8vxtBP1W-19" target="Ko_WbHw4z3wD8vxtBP1W-17">
                    <mxGeometry width="160" relative="1" as="geometry">
                        <mxPoint x="230" y="244" as="sourcePoint"/>
                        <mxPoint x="400" y="200" as="targetPoint"/>
                        <Array as="points"/>
                    </mxGeometry>
                </mxCell>
                <mxCell id="Ko_WbHw4z3wD8vxtBP1W-27" value="Platfom Web" style="swimlane;whiteSpace=wrap;html=1;" vertex="1" parent="Ko_WbHw4z3wD8vxtBP1W-8">
                    <mxGeometry x="40" y="40" width="590" height="390" as="geometry"/>
                </mxCell>
                <mxCell id="Ko_WbHw4z3wD8vxtBP1W-19" value="upload AR exprerience" style="shape=ellipse;html=1;strokeWidth=3;fontStyle=1;whiteSpace=wrap;align=center;perimeter=ellipsePerimeter;" vertex="1" parent="Ko_WbHw4z3wD8vxtBP1W-27">
                    <mxGeometry x="110" y="220" width="120" height="60" as="geometry"/>
                </mxCell>
                <mxCell id="Ko_WbHw4z3wD8vxtBP1W-15" value="Create classrom" style="shape=ellipse;html=1;strokeWidth=3;fontStyle=1;whiteSpace=wrap;align=center;perimeter=ellipsePerimeter;" vertex="1" parent="Ko_WbHw4z3wD8vxtBP1W-27">
                    <mxGeometry x="110" y="90" width="120" height="60" as="geometry"/>
                </mxCell>
                <mxCell id="Ko_WbHw4z3wD8vxtBP1W-12" value="Register" style="shape=ellipse;html=1;strokeWidth=3;fontStyle=1;whiteSpace=wrap;align=center;perimeter=ellipsePerimeter;" vertex="1" parent="Ko_WbHw4z3wD8vxtBP1W-27">
                    <mxGeometry x="60" y="30" width="120" height="60" as="geometry"/>
                </mxCell>
                <mxCell id="XsA95ls5Mxl4hyqw5wmZ-9" value="Modify experience" style="shape=ellipse;html=1;strokeWidth=3;fontStyle=1;whiteSpace=wrap;align=center;perimeter=ellipsePerimeter;" vertex="1" parent="Ko_WbHw4z3wD8vxtBP1W-27">
                    <mxGeometry x="110" y="290" width="120" height="60" as="geometry"/>
                </mxCell>
                <mxCell id="XsA95ls5Mxl4hyqw5wmZ-13" value="Remove classrom" style="shape=ellipse;html=1;strokeWidth=3;fontStyle=1;whiteSpace=wrap;align=center;perimeter=ellipsePerimeter;" vertex="1" parent="Ko_WbHw4z3wD8vxtBP1W-27">
                    <mxGeometry x="110" y="150" width="120" height="60" as="geometry"/>
                </mxCell>
                <mxCell id="XsA95ls5Mxl4hyqw5wmZ-16" value="Remove experience" style="shape=ellipse;html=1;strokeWidth=3;fontStyle=1;whiteSpace=wrap;align=center;perimeter=ellipsePerimeter;" vertex="1" parent="Ko_WbHw4z3wD8vxtBP1W-27">
                    <mxGeometry x="280" y="330" width="120" height="60" as="geometry"/>
                </mxCell>
                <mxCell id="Ko_WbHw4z3wD8vxtBP1W-28" value="Mobile App" style="swimlane;whiteSpace=wrap;html=1;" vertex="1" parent="Ko_WbHw4z3wD8vxtBP1W-8">
                    <mxGeometry x="40" y="440" width="590" height="300" as="geometry"/>
                </mxCell>
                <mxCell id="Ko_WbHw4z3wD8vxtBP1W-29" value="Register" style="shape=ellipse;html=1;strokeWidth=3;fontStyle=1;whiteSpace=wrap;align=center;perimeter=ellipsePerimeter;" vertex="1" parent="Ko_WbHw4z3wD8vxtBP1W-28">
                    <mxGeometry x="125" y="40" width="120" height="60" as="geometry"/>
                </mxCell>
                <mxCell id="oA_jK93PKnkt6qfT9TND-1" value="Join classrom" style="shape=ellipse;html=1;strokeWidth=3;fontStyle=1;whiteSpace=wrap;align=center;perimeter=ellipsePerimeter;" vertex="1" parent="Ko_WbHw4z3wD8vxtBP1W-28">
                    <mxGeometry x="45" y="120" width="125" height="60" as="geometry"/>
                </mxCell>
                <mxCell id="XsA95ls5Mxl4hyqw5wmZ-1" value="Consult experience" style="shape=ellipse;html=1;strokeWidth=3;fontStyle=1;whiteSpace=wrap;align=center;perimeter=ellipsePerimeter;" vertex="1" parent="Ko_WbHw4z3wD8vxtBP1W-28">
                    <mxGeometry x="70" y="210" width="120" height="60" as="geometry"/>
                </mxCell>
                <mxCell id="XsA95ls5Mxl4hyqw5wmZ-6" value="Authenticate" style="shape=ellipse;html=1;strokeWidth=3;fontStyle=1;whiteSpace=wrap;align=center;perimeter=ellipsePerimeter;" vertex="1" parent="Ko_WbHw4z3wD8vxtBP1W-28">
                    <mxGeometry x="380" y="60" width="120" height="60" as="geometry"/>
                </mxCell>
                <mxCell id="XsA95ls5Mxl4hyqw5wmZ-7" value="&amp;lt;&amp;lt;include&amp;gt;&amp;gt;" style="html=1;verticalAlign=bottom;labelBackgroundColor=none;endArrow=open;endFill=0;dashed=1;exitX=1;exitY=0.5;exitDx=0;exitDy=0;entryX=0;entryY=0.5;entryDx=0;entryDy=0;" edge="1" parent="Ko_WbHw4z3wD8vxtBP1W-28" source="XsA95ls5Mxl4hyqw5wmZ-1" target="XsA95ls5Mxl4hyqw5wmZ-6">
                    <mxGeometry width="160" relative="1" as="geometry">
                        <mxPoint x="180" y="210" as="sourcePoint"/>
                        <mxPoint x="380" y="75" as="targetPoint"/>
                        <Array as="points"/>
                    </mxGeometry>
                </mxCell>
                <mxCell id="XsA95ls5Mxl4hyqw5wmZ-8" value="&amp;lt;&amp;lt;include&amp;gt;&amp;gt;" style="html=1;verticalAlign=bottom;labelBackgroundColor=none;endArrow=open;endFill=0;dashed=1;exitX=1;exitY=0.5;exitDx=0;exitDy=0;entryX=0;entryY=0.5;entryDx=0;entryDy=0;" edge="1" parent="Ko_WbHw4z3wD8vxtBP1W-28" source="oA_jK93PKnkt6qfT9TND-1" target="XsA95ls5Mxl4hyqw5wmZ-6">
                    <mxGeometry width="160" relative="1" as="geometry">
                        <mxPoint x="195" y="175" as="sourcePoint"/>
                        <mxPoint x="395" y="40" as="targetPoint"/>
                        <Array as="points"/>
                    </mxGeometry>
                </mxCell>
                <mxCell id="XsA95ls5Mxl4hyqw5wmZ-19" value="Get out of classrom" style="shape=ellipse;html=1;strokeWidth=3;fontStyle=1;whiteSpace=wrap;align=center;perimeter=ellipsePerimeter;" vertex="1" parent="Ko_WbHw4z3wD8vxtBP1W-28">
                    <mxGeometry x="330" y="230" width="120" height="60" as="geometry"/>
                </mxCell>
                <mxCell id="XsA95ls5Mxl4hyqw5wmZ-21" value="&amp;lt;&amp;lt;include&amp;gt;&amp;gt;" style="html=1;verticalAlign=bottom;labelBackgroundColor=none;endArrow=open;endFill=0;dashed=1;exitX=0.5;exitY=0;exitDx=0;exitDy=0;entryX=0.5;entryY=1;entryDx=0;entryDy=0;" edge="1" parent="Ko_WbHw4z3wD8vxtBP1W-28" source="XsA95ls5Mxl4hyqw5wmZ-19" target="XsA95ls5Mxl4hyqw5wmZ-6">
                    <mxGeometry width="160" relative="1" as="geometry">
                        <mxPoint x="200" y="250" as="sourcePoint"/>
                        <mxPoint x="390" y="100" as="targetPoint"/>
                        <Array as="points"/>
                    </mxGeometry>
                </mxCell>
                <mxCell id="XsA95ls5Mxl4hyqw5wmZ-11" value="&amp;lt;&amp;lt;include&amp;gt;&amp;gt;" style="html=1;verticalAlign=bottom;labelBackgroundColor=none;endArrow=open;endFill=0;dashed=1;exitX=1;exitY=0;exitDx=0;exitDy=0;entryX=0.729;entryY=0.882;entryDx=0;entryDy=0;entryPerimeter=0;" edge="1" parent="Ko_WbHw4z3wD8vxtBP1W-8" source="XsA95ls5Mxl4hyqw5wmZ-9" target="Ko_WbHw4z3wD8vxtBP1W-17">
                    <mxGeometry width="160" relative="1" as="geometry">
                        <mxPoint x="280" y="290" as="sourcePoint"/>
                        <mxPoint x="420" y="160" as="targetPoint"/>
                        <Array as="points"/>
                    </mxGeometry>
                </mxCell>
                <mxCell id="XsA95ls5Mxl4hyqw5wmZ-15" value="&amp;lt;&amp;lt;include&amp;gt;&amp;gt;" style="html=1;verticalAlign=bottom;labelBackgroundColor=none;endArrow=open;endFill=0;dashed=1;exitX=1;exitY=0;exitDx=0;exitDy=0;" edge="1" parent="Ko_WbHw4z3wD8vxtBP1W-8" source="XsA95ls5Mxl4hyqw5wmZ-13" target="Ko_WbHw4z3wD8vxtBP1W-17">
                    <mxGeometry width="160" relative="1" as="geometry">
                        <mxPoint x="290" y="300" as="sourcePoint"/>
                        <mxPoint x="420" y="160" as="targetPoint"/>
                        <Array as="points"/>
                    </mxGeometry>
                </mxCell>
                <mxCell id="XsA95ls5Mxl4hyqw5wmZ-17" value="&amp;lt;&amp;lt;include&amp;gt;&amp;gt;" style="html=1;verticalAlign=bottom;labelBackgroundColor=none;endArrow=open;endFill=0;dashed=1;exitX=0.656;exitY=0;exitDx=0;exitDy=0;entryX=1;entryY=1;entryDx=0;entryDy=0;exitPerimeter=0;" edge="1" parent="Ko_WbHw4z3wD8vxtBP1W-8" source="XsA95ls5Mxl4hyqw5wmZ-16" target="Ko_WbHw4z3wD8vxtBP1W-17">
                    <mxGeometry width="160" relative="1" as="geometry">
                        <mxPoint x="272" y="349" as="sourcePoint"/>
                        <mxPoint x="447" y="153" as="targetPoint"/>
                        <Array as="points"/>
                    </mxGeometry>
                </mxCell>
                <mxCell id="Ko_WbHw4z3wD8vxtBP1W-9" value="Teatcher" style="shape=umlActor;verticalLabelPosition=bottom;verticalAlign=top;outlineConnect=0;labelBackgroundColor=none;fontColor=light-dark(#000000,#EDEDED);strokeWidth=3;html=1;spacing=3;spacingTop=0;fontSize=12;" vertex="1" parent="1">
                    <mxGeometry x="40" y="70" width="30" height="60" as="geometry"/>
                </mxCell>
                <mxCell id="Ko_WbHw4z3wD8vxtBP1W-13" value="" style="edgeStyle=none;html=1;endArrow=none;verticalAlign=bottom;entryX=0;entryY=0.5;entryDx=0;entryDy=0;exitX=0.5;exitY=0.5;exitDx=0;exitDy=0;exitPerimeter=0;" edge="1" parent="1" source="Ko_WbHw4z3wD8vxtBP1W-9" target="Ko_WbHw4z3wD8vxtBP1W-12">
                    <mxGeometry width="160" relative="1" as="geometry">
                        <mxPoint x="70" y="110" as="sourcePoint"/>
                        <mxPoint x="270" y="99" as="targetPoint"/>
                    </mxGeometry>
                </mxCell>
                <mxCell id="Ko_WbHw4z3wD8vxtBP1W-16" value="" style="edgeStyle=none;html=1;endArrow=none;verticalAlign=bottom;entryX=0;entryY=0.5;entryDx=0;entryDy=0;" edge="1" parent="1" target="Ko_WbHw4z3wD8vxtBP1W-15">
                    <mxGeometry width="160" relative="1" as="geometry">
                        <mxPoint x="55" y="100" as="sourcePoint"/>
                        <mxPoint x="430" y="230" as="targetPoint"/>
                        <Array as="points"/>
                    </mxGeometry>
                </mxCell>
                <mxCell id="Ko_WbHw4z3wD8vxtBP1W-22" value="" style="edgeStyle=none;html=1;endArrow=none;verticalAlign=bottom;exitX=0.5;exitY=0.5;exitDx=0;exitDy=0;exitPerimeter=0;" edge="1" parent="1" source="Ko_WbHw4z3wD8vxtBP1W-9" target="Ko_WbHw4z3wD8vxtBP1W-19">
                    <mxGeometry width="160" relative="1" as="geometry">
                        <mxPoint x="80" y="120" as="sourcePoint"/>
                        <mxPoint x="210" y="254" as="targetPoint"/>
                    </mxGeometry>
                </mxCell>
                <mxCell id="XsA95ls5Mxl4hyqw5wmZ-3" value="" style="edgeStyle=none;html=1;endArrow=none;verticalAlign=bottom;exitX=0.5;exitY=0.5;exitDx=0;exitDy=0;exitPerimeter=0;entryX=0;entryY=0.5;entryDx=0;entryDy=0;" edge="1" parent="1" source="Ko_WbHw4z3wD8vxtBP1W-2" target="Ko_WbHw4z3wD8vxtBP1W-29">
                    <mxGeometry width="160" relative="1" as="geometry">
                        <mxPoint x="100" y="360" as="sourcePoint"/>
                        <mxPoint x="276" y="490" as="targetPoint"/>
                    </mxGeometry>
                </mxCell>
                <mxCell id="XsA95ls5Mxl4hyqw5wmZ-4" value="" style="edgeStyle=none;html=1;endArrow=none;verticalAlign=bottom;exitX=0.5;exitY=0.5;exitDx=0;exitDy=0;exitPerimeter=0;" edge="1" parent="1" source="Ko_WbHw4z3wD8vxtBP1W-2" target="oA_jK93PKnkt6qfT9TND-1">
                    <mxGeometry width="160" relative="1" as="geometry">
                        <mxPoint x="60" y="320" as="sourcePoint"/>
                        <mxPoint x="236" y="450" as="targetPoint"/>
                    </mxGeometry>
                </mxCell>
                <mxCell id="XsA95ls5Mxl4hyqw5wmZ-5" value="" style="edgeStyle=none;html=1;endArrow=none;verticalAlign=bottom;exitX=0.5;exitY=0.5;exitDx=0;exitDy=0;exitPerimeter=0;entryX=0;entryY=0.5;entryDx=0;entryDy=0;" edge="1" parent="1" source="Ko_WbHw4z3wD8vxtBP1W-2" target="XsA95ls5Mxl4hyqw5wmZ-1">
                    <mxGeometry width="160" relative="1" as="geometry">
                        <mxPoint x="30" y="410" as="sourcePoint"/>
                        <mxPoint x="206" y="540" as="targetPoint"/>
                    </mxGeometry>
                </mxCell>
                <mxCell id="XsA95ls5Mxl4hyqw5wmZ-12" value="" style="edgeStyle=none;html=1;endArrow=none;verticalAlign=bottom;entryX=0.042;entryY=0.326;entryDx=0;entryDy=0;entryPerimeter=0;" edge="1" parent="1" source="Ko_WbHw4z3wD8vxtBP1W-9" target="XsA95ls5Mxl4hyqw5wmZ-9">
                    <mxGeometry width="160" relative="1" as="geometry">
                        <mxPoint x="65" y="210" as="sourcePoint"/>
                        <mxPoint x="313" y="366" as="targetPoint"/>
                    </mxGeometry>
                </mxCell>
                <mxCell id="XsA95ls5Mxl4hyqw5wmZ-14" value="" style="edgeStyle=none;html=1;endArrow=none;verticalAlign=bottom;exitX=0.5;exitY=0.5;exitDx=0;exitDy=0;exitPerimeter=0;entryX=0;entryY=0;entryDx=0;entryDy=0;" edge="1" parent="1" target="XsA95ls5Mxl4hyqw5wmZ-13">
                    <mxGeometry width="160" relative="1" as="geometry">
                        <mxPoint x="65" y="110" as="sourcePoint"/>
                        <mxPoint x="323" y="276" as="targetPoint"/>
                    </mxGeometry>
                </mxCell>
                <mxCell id="XsA95ls5Mxl4hyqw5wmZ-18" value="" style="edgeStyle=none;html=1;endArrow=none;verticalAlign=bottom;entryX=0;entryY=0.5;entryDx=0;entryDy=0;exitX=1;exitY=1;exitDx=0;exitDy=0;exitPerimeter=0;" edge="1" parent="1" source="Ko_WbHw4z3wD8vxtBP1W-9" target="XsA95ls5Mxl4hyqw5wmZ-16">
                    <mxGeometry width="160" relative="1" as="geometry">
                        <mxPoint x="80" y="126" as="sourcePoint"/>
                        <mxPoint x="305" y="360" as="targetPoint"/>
                        <Array as="points">
                            <mxPoint x="200" y="400"/>
                        </Array>
                    </mxGeometry>
                </mxCell>
                <mxCell id="XsA95ls5Mxl4hyqw5wmZ-20" value="" style="edgeStyle=none;html=1;endArrow=none;verticalAlign=bottom;entryX=0;entryY=0.5;entryDx=0;entryDy=0;exitX=1;exitY=1;exitDx=0;exitDy=0;exitPerimeter=0;" edge="1" parent="1" source="Ko_WbHw4z3wD8vxtBP1W-2" target="XsA95ls5Mxl4hyqw5wmZ-19">
                    <mxGeometry width="160" relative="1" as="geometry">
                        <mxPoint x="85" y="510" as="sourcePoint"/>
                        <mxPoint x="250" y="690" as="targetPoint"/>
                        <Array as="points">
                            <mxPoint x="80" y="700"/>
                            <mxPoint x="290" y="730"/>
                        </Array>
                    </mxGeometry>
                </mxCell>
            </root>
        </mxGraphModel>
    </diagram>
    <diagram id="ZcMmzyTMPJluZt-ochAZ" name="Page-1">
        <mxGraphModel dx="2496" dy="2100" grid="1" gridSize="10" guides="1" tooltips="1" connect="1" arrows="1" fold="1" page="1" pageScale="1" pageWidth="850" pageHeight="1100" math="0" shadow="0">
            <root>
                <mxCell id="0"/>
                <mxCell id="1" parent="0"/>
                <UserObject label="" mermaidData="{&#xa;  &quot;data&quot;: &quot;---\ntitle: AR4Learn\n---\ngraph TD;\n    subgraph Professeur\n        A[Professeur] --&gt;|S&#39;inscrire / Se connecter| UC0(Authentification Professeur)\n        UC0 --&gt;|Créer un Classroom| UC1(Créer un Classroom)\n        UC1 --&gt;|Ajouter des expériences| UC2(Créer une Expérience avec Unity + ARCore)\n        UC2 --&gt;|Exporter en .glb| UC3(Téléverser une Expérience dans un Classroom)\n        UC3 --&gt; UC4(Gérer ses Expériences)\n    end\n\n    subgraph Plateforme_Web\n        UC0\n        UC1\n        UC3\n        UC4\n    end\n\n    subgraph Etudiant_Application_Mobile\n        B[Étudiant] --&gt;|S&#39;inscrire / Se connecter| UC5(Authentification Étudiant)\n        UC5 --&gt;|Entrer un code Classroom| UC6(Rejoindre un Classroom)\n        UC6 --&gt;|Consulter les Expériences du Classroom| UC7(Consulter une Expérience)\n        UC7 --&gt;|Charger et Afficher| UC8(Afficher une Expérience en AR)\n    end\n&quot;&#xa;}" id="6">
                    <mxCell style="shape=image;noLabel=1;verticalAlign=top;imageAspect=1;image=data:image/svg+xml,PHN2ZyBhcmlhLXJvbGVkZXNjcmlwdGlvbj0iZmxvd2NoYXJ0LXYyIiByb2xlPSJncmFwaGljcy1kb2N1bWVudCBkb2N1bWVudCIgdmlld0JveD0iMCAtNDkuNjY2NjY3OTM4MjMyNDIgODY2Ljc4MTI1IDk3OC4zMzMzNzQwMjM0Mzc1IiBzdHlsZT0ibWF4LXdpZHRoOiA4NjYuNzgxMjVweDsiIGNsYXNzPSJmbG93Y2hhcnQiIHhtbG5zPSJodHRwOi8vd3d3LnczLm9yZy8yMDAwL3N2ZyIgd2lkdGg9IjEwMCUiIGlkPSJnZU1lcm1haWRPdXRwdXQtMTc0MTY1NDM2NzI3NCI+PHN0eWxlPiNnZU1lcm1haWRPdXRwdXQtMTc0MTY1NDM2NzI3NHtmb250LWZhbWlseToidHJlYnVjaGV0IG1zIix2ZXJkYW5hLGFyaWFsLHNhbnMtc2VyaWY7Zm9udC1zaXplOjE2cHg7ZmlsbDojMDAwMDAwO30jZ2VNZXJtYWlkT3V0cHV0LTE3NDE2NTQzNjcyNzQgLmVycm9yLWljb257ZmlsbDojNTUyMjIyO30jZ2VNZXJtYWlkT3V0cHV0LTE3NDE2NTQzNjcyNzQgLmVycm9yLXRleHR7ZmlsbDojNTUyMjIyO3N0cm9rZTojNTUyMjIyO30jZ2VNZXJtYWlkT3V0cHV0LTE3NDE2NTQzNjcyNzQgLmVkZ2UtdGhpY2tuZXNzLW5vcm1hbHtzdHJva2Utd2lkdGg6MXB4O30jZ2VNZXJtYWlkT3V0cHV0LTE3NDE2NTQzNjcyNzQgLmVkZ2UtdGhpY2tuZXNzLXRoaWNre3N0cm9rZS13aWR0aDozLjVweDt9I2dlTWVybWFpZE91dHB1dC0xNzQxNjU0MzY3Mjc0IC5lZGdlLXBhdHRlcm4tc29saWR7c3Ryb2tlLWRhc2hhcnJheTowO30jZ2VNZXJtYWlkT3V0cHV0LTE3NDE2NTQzNjcyNzQgLmVkZ2UtdGhpY2tuZXNzLWludmlzaWJsZXtzdHJva2Utd2lkdGg6MDtmaWxsOm5vbmU7fSNnZU1lcm1haWRPdXRwdXQtMTc0MTY1NDM2NzI3NCAuZWRnZS1wYXR0ZXJuLWRhc2hlZHtzdHJva2UtZGFzaGFycmF5OjM7fSNnZU1lcm1haWRPdXRwdXQtMTc0MTY1NDM2NzI3NCAuZWRnZS1wYXR0ZXJuLWRvdHRlZHtzdHJva2UtZGFzaGFycmF5OjI7fSNnZU1lcm1haWRPdXRwdXQtMTc0MTY1NDM2NzI3NCAubWFya2Vye2ZpbGw6IzY2NjtzdHJva2U6IzY2Njt9I2dlTWVybWFpZE91dHB1dC0xNzQxNjU0MzY3Mjc0IC5tYXJrZXIuY3Jvc3N7c3Ryb2tlOiM2NjY7fSNnZU1lcm1haWRPdXRwdXQtMTc0MTY1NDM2NzI3NCBzdmd7Zm9udC1mYW1pbHk6InRyZWJ1Y2hldCBtcyIsdmVyZGFuYSxhcmlhbCxzYW5zLXNlcmlmO2ZvbnQtc2l6ZToxNnB4O30jZ2VNZXJtYWlkT3V0cHV0LTE3NDE2NTQzNjcyNzQgcHttYXJnaW46MDt9I2dlTWVybWFpZE91dHB1dC0xNzQxNjU0MzY3Mjc0IC5sYWJlbHtmb250LWZhbWlseToidHJlYnVjaGV0IG1zIix2ZXJkYW5hLGFyaWFsLHNhbnMtc2VyaWY7Y29sb3I6IzAwMDAwMDt9I2dlTWVybWFpZE91dHB1dC0xNzQxNjU0MzY3Mjc0IC5jbHVzdGVyLWxhYmVsIHRleHR7ZmlsbDojMzMzO30jZ2VNZXJtYWlkT3V0cHV0LTE3NDE2NTQzNjcyNzQgLmNsdXN0ZXItbGFiZWwgc3Bhbntjb2xvcjojMzMzO30jZ2VNZXJtYWlkT3V0cHV0LTE3NDE2NTQzNjcyNzQgLmNsdXN0ZXItbGFiZWwgc3BhbiBwe2JhY2tncm91bmQtY29sb3I6dHJhbnNwYXJlbnQ7fSNnZU1lcm1haWRPdXRwdXQtMTc0MTY1NDM2NzI3NCAubGFiZWwgdGV4dCwjZ2VNZXJtYWlkT3V0cHV0LTE3NDE2NTQzNjcyNzQgc3BhbntmaWxsOiMwMDAwMDA7Y29sb3I6IzAwMDAwMDt9I2dlTWVybWFpZE91dHB1dC0xNzQxNjU0MzY3Mjc0IC5ub2RlIHJlY3QsI2dlTWVybWFpZE91dHB1dC0xNzQxNjU0MzY3Mjc0IC5ub2RlIGNpcmNsZSwjZ2VNZXJtYWlkT3V0cHV0LTE3NDE2NTQzNjcyNzQgLm5vZGUgZWxsaXBzZSwjZ2VNZXJtYWlkT3V0cHV0LTE3NDE2NTQzNjcyNzQgLm5vZGUgcG9seWdvbiwjZ2VNZXJtYWlkT3V0cHV0LTE3NDE2NTQzNjcyNzQgLm5vZGUgcGF0aHtmaWxsOiNlZWU7c3Ryb2tlOiM5OTk7c3Ryb2tlLXdpZHRoOjFweDt9I2dlTWVybWFpZE91dHB1dC0xNzQxNjU0MzY3Mjc0IC5yb3VnaC1ub2RlIC5sYWJlbCB0ZXh0LCNnZU1lcm1haWRPdXRwdXQtMTc0MTY1NDM2NzI3NCAubm9kZSAubGFiZWwgdGV4dCwjZ2VNZXJtYWlkT3V0cHV0LTE3NDE2NTQzNjcyNzQgLmltYWdlLXNoYXBlIC5sYWJlbCwjZ2VNZXJtYWlkT3V0cHV0LTE3NDE2NTQzNjcyNzQgLmljb24tc2hhcGUgLmxhYmVse3RleHQtYW5jaG9yOm1pZGRsZTt9I2dlTWVybWFpZE91dHB1dC0xNzQxNjU0MzY3Mjc0IC5ub2RlIC5rYXRleCBwYXRoe2ZpbGw6IzAwMDtzdHJva2U6IzAwMDtzdHJva2Utd2lkdGg6MXB4O30jZ2VNZXJtYWlkT3V0cHV0LTE3NDE2NTQzNjcyNzQgLnJvdWdoLW5vZGUgLmxhYmVsLCNnZU1lcm1haWRPdXRwdXQtMTc0MTY1NDM2NzI3NCAubm9kZSAubGFiZWwsI2dlTWVybWFpZE91dHB1dC0xNzQxNjU0MzY3Mjc0IC5pbWFnZS1zaGFwZSAubGFiZWwsI2dlTWVybWFpZE91dHB1dC0xNzQxNjU0MzY3Mjc0IC5pY29uLXNoYXBlIC5sYWJlbHt0ZXh0LWFsaWduOmNlbnRlcjt9I2dlTWVybWFpZE91dHB1dC0xNzQxNjU0MzY3Mjc0IC5ub2RlLmNsaWNrYWJsZXtjdXJzb3I6cG9pbnRlcjt9I2dlTWVybWFpZE91dHB1dC0xNzQxNjU0MzY3Mjc0IC5yb290IC5hbmNob3IgcGF0aHtmaWxsOiM2NjYhaW1wb3J0YW50O3N0cm9rZS13aWR0aDowO3N0cm9rZTojNjY2O30jZ2VNZXJtYWlkT3V0cHV0LTE3NDE2NTQzNjcyNzQgLmFycm93aGVhZFBhdGh7ZmlsbDojMzMzMzMzO30jZ2VNZXJtYWlkT3V0cHV0LTE3NDE2NTQzNjcyNzQgLmVkZ2VQYXRoIC5wYXRoe3N0cm9rZTojNjY2O3N0cm9rZS13aWR0aDoyLjBweDt9I2dlTWVybWFpZE91dHB1dC0xNzQxNjU0MzY3Mjc0IC5mbG93Y2hhcnQtbGlua3tzdHJva2U6IzY2NjtmaWxsOm5vbmU7fSNnZU1lcm1haWRPdXRwdXQtMTc0MTY1NDM2NzI3NCAuZWRnZUxhYmVse2JhY2tncm91bmQtY29sb3I6d2hpdGU7dGV4dC1hbGlnbjpjZW50ZXI7fSNnZU1lcm1haWRPdXRwdXQtMTc0MTY1NDM2NzI3NCAuZWRnZUxhYmVsIHB7YmFja2dyb3VuZC1jb2xvcjp3aGl0ZTt9I2dlTWVybWFpZE91dHB1dC0xNzQxNjU0MzY3Mjc0IC5lZGdlTGFiZWwgcmVjdHtvcGFjaXR5OjAuNTtiYWNrZ3JvdW5kLWNvbG9yOndoaXRlO2ZpbGw6d2hpdGU7fSNnZU1lcm1haWRPdXRwdXQtMTc0MTY1NDM2NzI3NCAubGFiZWxCa2d7YmFja2dyb3VuZC1jb2xvcjpyZ2JhKDI1NSwgMjU1LCAyNTUsIDAuNSk7fSNnZU1lcm1haWRPdXRwdXQtMTc0MTY1NDM2NzI3NCAuY2x1c3RlciByZWN0e2ZpbGw6aHNsKDAsIDAlLCA5OC45MjE1Njg2Mjc1JSk7c3Ryb2tlOiM3MDcwNzA7c3Ryb2tlLXdpZHRoOjFweDt9I2dlTWVybWFpZE91dHB1dC0xNzQxNjU0MzY3Mjc0IC5jbHVzdGVyIHRleHR7ZmlsbDojMzMzO30jZ2VNZXJtYWlkT3V0cHV0LTE3NDE2NTQzNjcyNzQgLmNsdXN0ZXIgc3Bhbntjb2xvcjojMzMzO30jZ2VNZXJtYWlkT3V0cHV0LTE3NDE2NTQzNjcyNzQgZGl2Lm1lcm1haWRUb29sdGlwe3Bvc2l0aW9uOmFic29sdXRlO3RleHQtYWxpZ246Y2VudGVyO21heC13aWR0aDoyMDBweDtwYWRkaW5nOjJweDtmb250LWZhbWlseToidHJlYnVjaGV0IG1zIix2ZXJkYW5hLGFyaWFsLHNhbnMtc2VyaWY7Zm9udC1zaXplOjEycHg7YmFja2dyb3VuZDpoc2woLTE2MCwgMCUsIDkzLjMzMzMzMzMzMzMlKTtib3JkZXI6MXB4IHNvbGlkICM3MDcwNzA7Ym9yZGVyLXJhZGl1czoycHg7cG9pbnRlci1ldmVudHM6bm9uZTt6LWluZGV4OjEwMDt9I2dlTWVybWFpZE91dHB1dC0xNzQxNjU0MzY3Mjc0IC5mbG93Y2hhcnRUaXRsZVRleHR7dGV4dC1hbmNob3I6bWlkZGxlO2ZvbnQtc2l6ZToxOHB4O2ZpbGw6IzAwMDAwMDt9I2dlTWVybWFpZE91dHB1dC0xNzQxNjU0MzY3Mjc0IHJlY3QudGV4dHtmaWxsOm5vbmU7c3Ryb2tlLXdpZHRoOjA7fSNnZU1lcm1haWRPdXRwdXQtMTc0MTY1NDM2NzI3NCAuaWNvbi1zaGFwZSwjZ2VNZXJtYWlkT3V0cHV0LTE3NDE2NTQzNjcyNzQgLmltYWdlLXNoYXBle2JhY2tncm91bmQtY29sb3I6d2hpdGU7dGV4dC1hbGlnbjpjZW50ZXI7fSNnZU1lcm1haWRPdXRwdXQtMTc0MTY1NDM2NzI3NCAuaWNvbi1zaGFwZSBwLCNnZU1lcm1haWRPdXRwdXQtMTc0MTY1NDM2NzI3NCAuaW1hZ2Utc2hhcGUgcHtiYWNrZ3JvdW5kLWNvbG9yOndoaXRlO3BhZGRpbmc6MnB4O30jZ2VNZXJtYWlkT3V0cHV0LTE3NDE2NTQzNjcyNzQgLmljb24tc2hhcGUgcmVjdCwjZ2VNZXJtYWlkT3V0cHV0LTE3NDE2NTQzNjcyNzQgLmltYWdlLXNoYXBlIHJlY3R7b3BhY2l0eTowLjU7YmFja2dyb3VuZC1jb2xvcjp3aGl0ZTtmaWxsOndoaXRlO30jZ2VNZXJtYWlkT3V0cHV0LTE3NDE2NTQzNjcyNzQgOnJvb3R7LS1tZXJtYWlkLWZvbnQtZmFtaWx5OiJ0cmVidWNoZXQgbXMiLHZlcmRhbmEsYXJpYWwsc2Fucy1zZXJpZjt9PC9zdHlsZT48Zz48bWFya2VyIG9yaWVudD0iYXV0byIgbWFya2VySGVpZ2h0PSI4IiBtYXJrZXJXaWR0aD0iOCIgbWFya2VyVW5pdHM9InVzZXJTcGFjZU9uVXNlIiByZWZZPSI1IiByZWZYPSI1IiB2aWV3Qm94PSIwIDAgMTAgMTAiIGNsYXNzPSJtYXJrZXIgZmxvd2NoYXJ0LXYyIiBpZD0iZ2VNZXJtYWlkT3V0cHV0LTE3NDE2NTQzNjcyNzRfZmxvd2NoYXJ0LXYyLXBvaW50RW5kIj48cGF0aCBzdHlsZT0ic3Ryb2tlLXdpZHRoOiAxOyBzdHJva2UtZGFzaGFycmF5OiAxLCAwOyIgY2xhc3M9ImFycm93TWFya2VyUGF0aCIgZD0iTSAwIDAgTCAxMCA1IEwgMCAxMCB6Ij48L3BhdGg+PC9tYXJrZXI+PG1hcmtlciBvcmllbnQ9ImF1dG8iIG1hcmtlckhlaWdodD0iOCIgbWFya2VyV2lkdGg9IjgiIG1hcmtlclVuaXRzPSJ1c2VyU3BhY2VPblVzZSIgcmVmWT0iNSIgcmVmWD0iNC41IiB2aWV3Qm94PSIwIDAgMTAgMTAiIGNsYXNzPSJtYXJrZXIgZmxvd2NoYXJ0LXYyIiBpZD0iZ2VNZXJtYWlkT3V0cHV0LTE3NDE2NTQzNjcyNzRfZmxvd2NoYXJ0LXYyLXBvaW50U3RhcnQiPjxwYXRoIHN0eWxlPSJzdHJva2Utd2lkdGg6IDE7IHN0cm9rZS1kYXNoYXJyYXk6IDEsIDA7IiBjbGFzcz0iYXJyb3dNYXJrZXJQYXRoIiBkPSJNIDAgNSBMIDEwIDEwIEwgMTAgMCB6Ij48L3BhdGg+PC9tYXJrZXI+PG1hcmtlciBvcmllbnQ9ImF1dG8iIG1hcmtlckhlaWdodD0iMTEiIG1hcmtlcldpZHRoPSIxMSIgbWFya2VyVW5pdHM9InVzZXJTcGFjZU9uVXNlIiByZWZZPSI1IiByZWZYPSIxMSIgdmlld0JveD0iMCAwIDEwIDEwIiBjbGFzcz0ibWFya2VyIGZsb3djaGFydC12MiIgaWQ9ImdlTWVybWFpZE91dHB1dC0xNzQxNjU0MzY3Mjc0X2Zsb3djaGFydC12Mi1jaXJjbGVFbmQiPjxjaXJjbGUgc3R5bGU9InN0cm9rZS13aWR0aDogMTsgc3Ryb2tlLWRhc2hhcnJheTogMSwgMDsiIGNsYXNzPSJhcnJvd01hcmtlclBhdGgiIHI9IjUiIGN5PSI1IiBjeD0iNSI+PC9jaXJjbGU+PC9tYXJrZXI+PG1hcmtlciBvcmllbnQ9ImF1dG8iIG1hcmtlckhlaWdodD0iMTEiIG1hcmtlcldpZHRoPSIxMSIgbWFya2VyVW5pdHM9InVzZXJTcGFjZU9uVXNlIiByZWZZPSI1IiByZWZYPSItMSIgdmlld0JveD0iMCAwIDEwIDEwIiBjbGFzcz0ibWFya2VyIGZsb3djaGFydC12MiIgaWQ9ImdlTWVybWFpZE91dHB1dC0xNzQxNjU0MzY3Mjc0X2Zsb3djaGFydC12Mi1jaXJjbGVTdGFydCI+PGNpcmNsZSBzdHlsZT0ic3Ryb2tlLXdpZHRoOiAxOyBzdHJva2UtZGFzaGFycmF5OiAxLCAwOyIgY2xhc3M9ImFycm93TWFya2VyUGF0aCIgcj0iNSIgY3k9IjUiIGN4PSI1Ij48L2NpcmNsZT48L21hcmtlcj48bWFya2VyIG9yaWVudD0iYXV0byIgbWFya2VySGVpZ2h0PSIxMSIgbWFya2VyV2lkdGg9IjExIiBtYXJrZXJVbml0cz0idXNlclNwYWNlT25Vc2UiIHJlZlk9IjUuMiIgcmVmWD0iMTIiIHZpZXdCb3g9IjAgMCAxMSAxMSIgY2xhc3M9Im1hcmtlciBjcm9zcyBmbG93Y2hhcnQtdjIiIGlkPSJnZU1lcm1haWRPdXRwdXQtMTc0MTY1NDM2NzI3NF9mbG93Y2hhcnQtdjItY3Jvc3NFbmQiPjxwYXRoIHN0eWxlPSJzdHJva2Utd2lkdGg6IDI7IHN0cm9rZS1kYXNoYXJyYXk6IDEsIDA7IiBjbGFzcz0iYXJyb3dNYXJrZXJQYXRoIiBkPSJNIDEsMSBsIDksOSBNIDEwLDEgbCAtOSw5Ij48L3BhdGg+PC9tYXJrZXI+PG1hcmtlciBvcmllbnQ9ImF1dG8iIG1hcmtlckhlaWdodD0iMTEiIG1hcmtlcldpZHRoPSIxMSIgbWFya2VyVW5pdHM9InVzZXJTcGFjZU9uVXNlIiByZWZZPSI1LjIiIHJlZlg9Ii0xIiB2aWV3Qm94PSIwIDAgMTEgMTEiIGNsYXNzPSJtYXJrZXIgY3Jvc3MgZmxvd2NoYXJ0LXYyIiBpZD0iZ2VNZXJtYWlkT3V0cHV0LTE3NDE2NTQzNjcyNzRfZmxvd2NoYXJ0LXYyLWNyb3NzU3RhcnQiPjxwYXRoIHN0eWxlPSJzdHJva2Utd2lkdGg6IDI7IHN0cm9rZS1kYXNoYXJyYXk6IDEsIDA7IiBjbGFzcz0iYXJyb3dNYXJrZXJQYXRoIiBkPSJNIDEsMSBsIDksOSBNIDEwLDEgbCAtOSw5Ij48L3BhdGg+PC9tYXJrZXI+PGcgY2xhc3M9InJvb3QiPjxnIGNsYXNzPSJjbHVzdGVycyI+PC9nPjxnIGNsYXNzPSJlZGdlUGF0aHMiPjwvZz48ZyBjbGFzcz0iZWRnZUxhYmVscyI+PC9nPjxnIGNsYXNzPSJub2RlcyI+PGcgdHJhbnNmb3JtPSJ0cmFuc2xhdGUoMCwgNjcuNzAwMDEyMjA3MDMxMjUpIiBjbGFzcz0icm9vdCI+PGcgY2xhc3M9ImNsdXN0ZXJzIj48ZyBkYXRhLWxvb2s9ImNsYXNzaWMiIGlkPSJFdHVkaWFudF9BcHBsaWNhdGlvbl9Nb2JpbGUiIGNsYXNzPSJjbHVzdGVyIj48cmVjdCBoZWlnaHQ9Ijc3Ny4yNjY2NjQ1MDUwMDQ5IiB3aWR0aD0iMzAwIiB5PSI4IiB4PSI4IiBzdHlsZT0iIj48L3JlY3Q+PGcgdHJhbnNmb3JtPSJ0cmFuc2xhdGUoNTkuNjcxODc1LCA4KSIgY2xhc3M9ImNsdXN0ZXItbGFiZWwiPjxnPjxyZWN0IHN0eWxlPSJzdHJva2U6IG5vbmUiIGNsYXNzPSJiYWNrZ3JvdW5kIj48L3JlY3Q+PHRleHQgc3R5bGU9IiIgeT0iLTEwLjEiPjx0c3BhbiBkeT0iMS4xZW0iIHk9Ii0wLjFlbSIgeD0iMCIgY2xhc3M9InRleHQtb3V0ZXItdHNwYW4iPjx0c3BhbiBmb250LXdlaWdodD0ibm9ybWFsIiBjbGFzcz0idGV4dC1pbm5lci10c3BhbiIgZm9udC1zdHlsZT0ibm9ybWFsIj5FdHVkaWFudF9BcHBsaWNhdGlvbl9Nb2JpbDwvdHNwYW4+PC90c3Bhbj48dHNwYW4gZHk9IjEuMWVtIiB5PSIxZW0iIHg9IjAiIGNsYXNzPSJ0ZXh0LW91dGVyLXRzcGFuIj48dHNwYW4gZm9udC13ZWlnaHQ9Im5vcm1hbCIgY2xhc3M9InRleHQtaW5uZXItdHNwYW4iIGZvbnQtc3R5bGU9Im5vcm1hbCI+ZTwvdHNwYW4+PC90c3Bhbj48L3RleHQ+PC9nPjwvZz48L2c+PC9nPjxnIGNsYXNzPSJlZGdlUGF0aHMiPjxwYXRoIG1hcmtlci1lbmQ9InVybCgjZ2VNZXJtYWlkT3V0cHV0LTE3NDE2NTQzNjcyNzRfZmxvd2NoYXJ0LXYyLXBvaW50RW5kKSIgc3R5bGU9IiIgY2xhc3M9ImVkZ2UtdGhpY2tuZXNzLW5vcm1hbCBlZGdlLXBhdHRlcm4tc29saWQgZWRnZS10aGlja25lc3Mtbm9ybWFsIGVkZ2UtcGF0dGVybi1zb2xpZCBmbG93Y2hhcnQtbGluayIgaWQ9IkxfQl9VQzVfNSIgZD0iTTE1OCw5OS41TDE1OCwxMDcuNjM5QzE1OCwxMTUuNzc4LDE1OCwxMzIuMDU2LDE1OCwxNDcuNjY3QzE1OCwxNjMuMjc4LDE1OCwxNzguMjIyLDE1OCwxODUuNjk0TDE1OCwxOTMuMTY3Ij48L3BhdGg+PHBhdGggbWFya2VyLWVuZD0idXJsKCNnZU1lcm1haWRPdXRwdXQtMTc0MTY1NDM2NzI3NF9mbG93Y2hhcnQtdjItcG9pbnRFbmQpIiBzdHlsZT0iIiBjbGFzcz0iZWRnZS10aGlja25lc3Mtbm9ybWFsIGVkZ2UtcGF0dGVybi1zb2xpZCBlZGdlLXRoaWNrbmVzcy1ub3JtYWwgZWRnZS1wYXR0ZXJuLXNvbGlkIGZsb3djaGFydC1saW5rIiBpZD0iTF9VQzVfVUM2XzYiIGQ9Ik0xNTgsMjUxLjE2N0wxNTgsMjU5LjMwNkMxNTgsMjY3LjQ0NCwxNTgsMjgzLjcyMiwxNTgsMjk5LjMzM0MxNTgsMzE0Ljk0NCwxNTgsMzI5Ljg4OSwxNTgsMzM3LjM2MUwxNTgsMzQ0LjgzMyI+PC9wYXRoPjxwYXRoIG1hcmtlci1lbmQ9InVybCgjZ2VNZXJtYWlkT3V0cHV0LTE3NDE2NTQzNjcyNzRfZmxvd2NoYXJ0LXYyLXBvaW50RW5kKSIgc3R5bGU9IiIgY2xhc3M9ImVkZ2UtdGhpY2tuZXNzLW5vcm1hbCBlZGdlLXBhdHRlcm4tc29saWQgZWRnZS10aGlja25lc3Mtbm9ybWFsIGVkZ2UtcGF0dGVybi1zb2xpZCBmbG93Y2hhcnQtbGluayIgaWQ9IkxfVUM2X1VDN183IiBkPSJNMTU4LDQwMi44MzNMMTU4LDQxMi40MzlDMTU4LDQyMi4wNDQsMTU4LDQ0MS4yNTYsMTU4LDQ1OS44QzE1OCw0NzguMzQ0LDE1OCw0OTYuMjIyLDE1OCw1MDUuMTYxTDE1OCw1MTQuMSI+PC9wYXRoPjxwYXRoIG1hcmtlci1lbmQ9InVybCgjZ2VNZXJtYWlkT3V0cHV0LTE3NDE2NTQzNjcyNzRfZmxvd2NoYXJ0LXYyLXBvaW50RW5kKSIgc3R5bGU9IiIgY2xhc3M9ImVkZ2UtdGhpY2tuZXNzLW5vcm1hbCBlZGdlLXBhdHRlcm4tc29saWQgZWRnZS10aGlja25lc3Mtbm9ybWFsIGVkZ2UtcGF0dGVybi1zb2xpZCBmbG93Y2hhcnQtbGluayIgaWQ9IkxfVUM3X1VDOF84IiBkPSJNMTU4LDU3Mi4xTDE1OCw1ODAuMjM5QzE1OCw1ODguMzc4LDE1OCw2MDQuNjU2LDE1OCw2MjAuMjY3QzE1OCw2MzUuODc4LDE1OCw2NTAuODIyLDE1OCw2NTguMjk0TDE1OCw2NjUuNzY3Ij48L3BhdGg+PC9nPjxnIGNsYXNzPSJlZGdlTGFiZWxzIj48ZyB0cmFuc2Zvcm09InRyYW5zbGF0ZSgxNTgsIDE0OC4zMzMzMzMwMTU0NDE5KSIgY2xhc3M9ImVkZ2VMYWJlbCI+PGcgdHJhbnNmb3JtPSJ0cmFuc2xhdGUoLTg5LjY3NzA4NTg3NjQ2NDg0LCAtMTEuMzMzMzMzMDE1NDQxODk1KSIgY2xhc3M9ImxhYmVsIj48Zz48cmVjdCBoZWlnaHQ9IjIyLjY2NjY2NzkzODIzMjQyMiIgd2lkdGg9IjE3OS4zNTQxNzE3NTI5Mjk3IiB5PSItMS4zMzMzMzIwNjE3Njc1NzgxIiB4PSItMiIgc3R5bGU9IiIgY2xhc3M9ImJhY2tncm91bmQiPjwvcmVjdD48dGV4dCBzdHlsZT0iIiB5PSItMTAuMSI+PHRzcGFuIGR5PSIxLjFlbSIgeT0iLTAuMWVtIiB4PSIwIiBjbGFzcz0idGV4dC1vdXRlci10c3BhbiI+PHRzcGFuIGZvbnQtd2VpZ2h0PSJub3JtYWwiIGNsYXNzPSJ0ZXh0LWlubmVyLXRzcGFuIiBmb250LXN0eWxlPSJub3JtYWwiPlMnaW5zY3JpcmU8L3RzcGFuPjx0c3BhbiBmb250LXdlaWdodD0ibm9ybWFsIiBjbGFzcz0idGV4dC1pbm5lci10c3BhbiIgZm9udC1zdHlsZT0ibm9ybWFsIj4gLzwvdHNwYW4+PHRzcGFuIGZvbnQtd2VpZ2h0PSJub3JtYWwiIGNsYXNzPSJ0ZXh0LWlubmVyLXRzcGFuIiBmb250LXN0eWxlPSJub3JtYWwiPiBTZTwvdHNwYW4+PHRzcGFuIGZvbnQtd2VpZ2h0PSJub3JtYWwiIGNsYXNzPSJ0ZXh0LWlubmVyLXRzcGFuIiBmb250LXN0eWxlPSJub3JtYWwiPiBjb25uZWN0ZXI8L3RzcGFuPjwvdHNwYW4+PC90ZXh0PjwvZz48L2c+PC9nPjxnIHRyYW5zZm9ybT0idHJhbnNsYXRlKDE1OCwgMjk5Ljk5OTk5OTA0NjMyNTcpIiBjbGFzcz0iZWRnZUxhYmVsIj48ZyB0cmFuc2Zvcm09InRyYW5zbGF0ZSgtOTMuNjI1LCAtMTEuMzMzMzMzMDE1NDQxODk1KSIgY2xhc3M9ImxhYmVsIj48Zz48cmVjdCBoZWlnaHQ9IjIyLjY2NjY2NzkzODIzMjQyMiIgd2lkdGg9IjE4Ny4yNSIgeT0iLTEuMzMzMzMyMDYxNzY3NTc4MSIgeD0iLTIiIHN0eWxlPSIiIGNsYXNzPSJiYWNrZ3JvdW5kIj48L3JlY3Q+PHRleHQgc3R5bGU9IiIgeT0iLTEwLjEiPjx0c3BhbiBkeT0iMS4xZW0iIHk9Ii0wLjFlbSIgeD0iMCIgY2xhc3M9InRleHQtb3V0ZXItdHNwYW4iPjx0c3BhbiBmb250LXdlaWdodD0ibm9ybWFsIiBjbGFzcz0idGV4dC1pbm5lci10c3BhbiIgZm9udC1zdHlsZT0ibm9ybWFsIj5FbnRyZXI8L3RzcGFuPjx0c3BhbiBmb250LXdlaWdodD0ibm9ybWFsIiBjbGFzcz0idGV4dC1pbm5lci10c3BhbiIgZm9udC1zdHlsZT0ibm9ybWFsIj4gdW48L3RzcGFuPjx0c3BhbiBmb250LXdlaWdodD0ibm9ybWFsIiBjbGFzcz0idGV4dC1pbm5lci10c3BhbiIgZm9udC1zdHlsZT0ibm9ybWFsIj4gY29kZTwvdHNwYW4+PHRzcGFuIGZvbnQtd2VpZ2h0PSJub3JtYWwiIGNsYXNzPSJ0ZXh0LWlubmVyLXRzcGFuIiBmb250LXN0eWxlPSJub3JtYWwiPiBDbGFzc3Jvb208L3RzcGFuPjwvdHNwYW4+PC90ZXh0PjwvZz48L2c+PC9nPjxnIHRyYW5zZm9ybT0idHJhbnNsYXRlKDE1OCwgNDYwLjQ2NjY2NTI2Nzk0NDM0KSIgY2xhc3M9ImVkZ2VMYWJlbCI+PGcgdHJhbnNmb3JtPSJ0cmFuc2xhdGUoLTkzLjc0MzQ5MjEyNjQ2NDg0LCAtMjAuMTMzMzMzMjA2MTc2NzU4KSIgY2xhc3M9ImxhYmVsIj48Zz48cmVjdCBoZWlnaHQ9IjQwLjI2NjY2NjQxMjM1MzUxNiIgd2lkdGg9IjE4Ny40ODY5ODQyNTI5Mjk3IiB5PSItMS4zMzMzMzIwNjE3Njc1NzgxIiB4PSItMiIgc3R5bGU9IiIgY2xhc3M9ImJhY2tncm91bmQiPjwvcmVjdD48dGV4dCBzdHlsZT0iIiB5PSItMTAuMSI+PHRzcGFuIGR5PSIxLjFlbSIgeT0iLTAuMWVtIiB4PSIwIiBjbGFzcz0idGV4dC1vdXRlci10c3BhbiI+PHRzcGFuIGZvbnQtd2VpZ2h0PSJub3JtYWwiIGNsYXNzPSJ0ZXh0LWlubmVyLXRzcGFuIiBmb250LXN0eWxlPSJub3JtYWwiPkNvbnN1bHRlcjwvdHNwYW4+PHRzcGFuIGZvbnQtd2VpZ2h0PSJub3JtYWwiIGNsYXNzPSJ0ZXh0LWlubmVyLXRzcGFuIiBmb250LXN0eWxlPSJub3JtYWwiPiBsZXM8L3RzcGFuPjx0c3BhbiBmb250LXdlaWdodD0ibm9ybWFsIiBjbGFzcz0idGV4dC1pbm5lci10c3BhbiIgZm9udC1zdHlsZT0ibm9ybWFsIj4gRXhww6lyaWVuY2VzPC90c3Bhbj48L3RzcGFuPjx0c3BhbiBkeT0iMS4xZW0iIHk9IjFlbSIgeD0iMCIgY2xhc3M9InRleHQtb3V0ZXItdHNwYW4iPjx0c3BhbiBmb250LXdlaWdodD0ibm9ybWFsIiBjbGFzcz0idGV4dC1pbm5lci10c3BhbiIgZm9udC1zdHlsZT0ibm9ybWFsIj5kdTwvdHNwYW4+PHRzcGFuIGZvbnQtd2VpZ2h0PSJub3JtYWwiIGNsYXNzPSJ0ZXh0LWlubmVyLXRzcGFuIiBmb250LXN0eWxlPSJub3JtYWwiPiBDbGFzc3Jvb208L3RzcGFuPjwvdHNwYW4+PC90ZXh0PjwvZz48L2c+PC9nPjxnIHRyYW5zZm9ybT0idHJhbnNsYXRlKDE1OCwgNjIwLjkzMzMzMTQ4OTU2MykiIGNsYXNzPSJlZGdlTGFiZWwiPjxnIHRyYW5zZm9ybT0idHJhbnNsYXRlKC03MC44MTc3MTA4NzY0NjQ4NCwgLTExLjMzMzMzMzAxNTQ0MTg5NSkiIGNsYXNzPSJsYWJlbCI+PGc+PHJlY3QgaGVpZ2h0PSIyMi42NjY2Njc5MzgyMzI0MjIiIHdpZHRoPSIxNDEuNjM1NDIxNzUyOTI5NyIgeT0iLTEuMzMzMzMyMDYxNzY3NTc4MSIgeD0iLTIiIHN0eWxlPSIiIGNsYXNzPSJiYWNrZ3JvdW5kIj48L3JlY3Q+PHRleHQgc3R5bGU9IiIgeT0iLTEwLjEiPjx0c3BhbiBkeT0iMS4xZW0iIHk9Ii0wLjFlbSIgeD0iMCIgY2xhc3M9InRleHQtb3V0ZXItdHNwYW4iPjx0c3BhbiBmb250LXdlaWdodD0ibm9ybWFsIiBjbGFzcz0idGV4dC1pbm5lci10c3BhbiIgZm9udC1zdHlsZT0ibm9ybWFsIj5DaGFyZ2VyPC90c3Bhbj48dHNwYW4gZm9udC13ZWlnaHQ9Im5vcm1hbCIgY2xhc3M9InRleHQtaW5uZXItdHNwYW4iIGZvbnQtc3R5bGU9Im5vcm1hbCI+IGV0PC90c3Bhbj48dHNwYW4gZm9udC13ZWlnaHQ9Im5vcm1hbCIgY2xhc3M9InRleHQtaW5uZXItdHNwYW4iIGZvbnQtc3R5bGU9Im5vcm1hbCI+IEFmZmljaGVyPC90c3Bhbj48L3RzcGFuPjwvdGV4dD48L2c+PC9nPjwvZz48L2c+PGcgY2xhc3M9Im5vZGVzIj48ZyB0cmFuc2Zvcm09InRyYW5zbGF0ZSgxNTgsIDcyLjUpIiBpZD0iZmxvd2NoYXJ0LUItMTE2IiBjbGFzcz0ibm9kZSBkZWZhdWx0Ij48cmVjdCBoZWlnaHQ9IjU0IiB3aWR0aD0iMTIwLjYyNSIgeT0iLTI3IiB4PSItNjAuMzEyNSIgc3R5bGU9IiIgY2xhc3M9ImJhc2ljIGxhYmVsLWNvbnRhaW5lciI+PC9yZWN0PjxnIHRyYW5zZm9ybT0idHJhbnNsYXRlKC0zMC4zMTI1LCAtMTIpIiBzdHlsZT0iIiBjbGFzcz0ibGFiZWwiPjxyZWN0PjwvcmVjdD48Zm9yZWlnbk9iamVjdCBoZWlnaHQ9IjI0IiB3aWR0aD0iNjAuNjI1Ij48ZGl2IHN0eWxlPSJkaXNwbGF5OiB0YWJsZS1jZWxsOyB3aGl0ZS1zcGFjZTogbm93cmFwOyBsaW5lLWhlaWdodDogMS41OyBtYXgtd2lkdGg6IDIwMHB4OyB0ZXh0LWFsaWduOiBjZW50ZXI7IiB4bWxucz0iaHR0cDovL3d3dy53My5vcmcvMTk5OS94aHRtbCI+PHNwYW4gY2xhc3M9Im5vZGVMYWJlbCI+PHA+w4l0dWRpYW50PC9wPjwvc3Bhbj48L2Rpdj48L2ZvcmVpZ25PYmplY3Q+PC9nPjwvZz48ZyB0cmFuc2Zvcm09InRyYW5zbGF0ZSgxNTgsIDIyNC4xNjY2NjYwMzA4ODM4KSIgaWQ9ImZsb3djaGFydC1VQzUtMTE3IiBjbGFzcz0ibm9kZSBkZWZhdWx0Ij48cmVjdCBoZWlnaHQ9IjU0IiB3aWR0aD0iMjEyLjEyNSIgeT0iLTI3IiB4PSItMTA2LjA2MjUiIHJ5PSI1IiByeD0iNSIgc3R5bGU9IiIgY2xhc3M9ImJhc2ljIGxhYmVsLWNvbnRhaW5lciI+PC9yZWN0PjxnIHRyYW5zZm9ybT0idHJhbnNsYXRlKC05MS4wNjI1LCAtMTIpIiBzdHlsZT0iIiBjbGFzcz0ibGFiZWwiPjxyZWN0PjwvcmVjdD48Zm9yZWlnbk9iamVjdCBoZWlnaHQ9IjI0IiB3aWR0aD0iMTgyLjEyNSI+PGRpdiBzdHlsZT0iZGlzcGxheTogdGFibGUtY2VsbDsgd2hpdGUtc3BhY2U6IG5vd3JhcDsgbGluZS1oZWlnaHQ6IDEuNTsgbWF4LXdpZHRoOiAyMDBweDsgdGV4dC1hbGlnbjogY2VudGVyOyIgeG1sbnM9Imh0dHA6Ly93d3cudzMub3JnLzE5OTkveGh0bWwiPjxzcGFuIGNsYXNzPSJub2RlTGFiZWwiPjxwPkF1dGhlbnRpZmljYXRpb24gw4l0dWRpYW50PC9wPjwvc3Bhbj48L2Rpdj48L2ZvcmVpZ25PYmplY3Q+PC9nPjwvZz48ZyB0cmFuc2Zvcm09InRyYW5zbGF0ZSgxNTgsIDM3NS44MzMzMzIwNjE3Njc2KSIgaWQ9ImZsb3djaGFydC1VQzYtMTE5IiBjbGFzcz0ibm9kZSBkZWZhdWx0Ij48cmVjdCBoZWlnaHQ9IjU0IiB3aWR0aD0iMTk4LjQ1ODM0MzUwNTg1OTM4IiB5PSItMjciIHg9Ii05OS4yMjkxNzE3NTI5Mjk2OSIgcnk9IjUiIHJ4PSI1IiBzdHlsZT0iIiBjbGFzcz0iYmFzaWMgbGFiZWwtY29udGFpbmVyIj48L3JlY3Q+PGcgdHJhbnNmb3JtPSJ0cmFuc2xhdGUoLTg0LjIyOTE3MTc1MjkyOTY5LCAtMTIpIiBzdHlsZT0iIiBjbGFzcz0ibGFiZWwiPjxyZWN0PjwvcmVjdD48Zm9yZWlnbk9iamVjdCBoZWlnaHQ9IjI0IiB3aWR0aD0iMTY4LjQ1ODM0MzUwNTg1OTM4Ij48ZGl2IHN0eWxlPSJkaXNwbGF5OiB0YWJsZS1jZWxsOyB3aGl0ZS1zcGFjZTogbm93cmFwOyBsaW5lLWhlaWdodDogMS41OyBtYXgtd2lkdGg6IDIwMHB4OyB0ZXh0LWFsaWduOiBjZW50ZXI7IiB4bWxucz0iaHR0cDovL3d3dy53My5vcmcvMTk5OS94aHRtbCI+PHNwYW4gY2xhc3M9Im5vZGVMYWJlbCI+PHA+UmVqb2luZHJlIHVuIENsYXNzcm9vbTwvcD48L3NwYW4+PC9kaXY+PC9mb3JlaWduT2JqZWN0PjwvZz48L2c+PGcgdHJhbnNmb3JtPSJ0cmFuc2xhdGUoMTU4LCA1NDUuMDk5OTk4NDc0MTIxMSkiIGlkPSJmbG93Y2hhcnQtVUM3LTEyMSIgY2xhc3M9Im5vZGUgZGVmYXVsdCI+PHJlY3QgaGVpZ2h0PSI1NCIgd2lkdGg9IjIxMy4xMDQxNzE3NTI5Mjk3IiB5PSItMjciIHg9Ii0xMDYuNTUyMDg1ODc2NDY0ODQiIHJ5PSI1IiByeD0iNSIgc3R5bGU9IiIgY2xhc3M9ImJhc2ljIGxhYmVsLWNvbnRhaW5lciI+PC9yZWN0PjxnIHRyYW5zZm9ybT0idHJhbnNsYXRlKC05MS41NTIwODU4NzY0NjQ4NCwgLTEyKSIgc3R5bGU9IiIgY2xhc3M9ImxhYmVsIj48cmVjdD48L3JlY3Q+PGZvcmVpZ25PYmplY3QgaGVpZ2h0PSIyNCIgd2lkdGg9IjE4My4xMDQxNzE3NTI5Mjk3Ij48ZGl2IHN0eWxlPSJkaXNwbGF5OiB0YWJsZS1jZWxsOyB3aGl0ZS1zcGFjZTogbm93cmFwOyBsaW5lLWhlaWdodDogMS41OyBtYXgtd2lkdGg6IDIwMHB4OyB0ZXh0LWFsaWduOiBjZW50ZXI7IiB4bWxucz0iaHR0cDovL3d3dy53My5vcmcvMTk5OS94aHRtbCI+PHNwYW4gY2xhc3M9Im5vZGVMYWJlbCI+PHA+Q29uc3VsdGVyIHVuZSBFeHDDqXJpZW5jZTwvcD48L3NwYW4+PC9kaXY+PC9mb3JlaWduT2JqZWN0PjwvZz48L2c+PGcgdHJhbnNmb3JtPSJ0cmFuc2xhdGUoMTU4LCA3MDguNzY2NjY0NTA1MDA0OSkiIGlkPSJmbG93Y2hhcnQtVUM4LTEyMyIgY2xhc3M9Im5vZGUgZGVmYXVsdCI+PHJlY3QgaGVpZ2h0PSI3OCIgd2lkdGg9IjIzMCIgeT0iLTM5IiB4PSItMTE1IiByeT0iNSIgcng9IjUiIHN0eWxlPSIiIGNsYXNzPSJiYXNpYyBsYWJlbC1jb250YWluZXIiPjwvcmVjdD48ZyB0cmFuc2Zvcm09InRyYW5zbGF0ZSgtMTAwLCAtMjQpIiBzdHlsZT0iIiBjbGFzcz0ibGFiZWwiPjxyZWN0PjwvcmVjdD48Zm9yZWlnbk9iamVjdCBoZWlnaHQ9IjQ4IiB3aWR0aD0iMjAwIj48ZGl2IHN0eWxlPSJkaXNwbGF5OiB0YWJsZTsgd2hpdGUtc3BhY2U6IGJyZWFrLXNwYWNlczsgbGluZS1oZWlnaHQ6IDEuNTsgbWF4LXdpZHRoOiAyMDBweDsgdGV4dC1hbGlnbjogY2VudGVyOyB3aWR0aDogMjAwcHg7IiB4bWxucz0iaHR0cDovL3d3dy53My5vcmcvMTk5OS94aHRtbCI+PHNwYW4gY2xhc3M9Im5vZGVMYWJlbCI+PHA+QWZmaWNoZXIgdW5lIEV4cMOpcmllbmNlIGVuIEFSPC9wPjwvc3Bhbj48L2Rpdj48L2ZvcmVpZ25PYmplY3Q+PC9nPjwvZz48L2c+PC9nPjxnIHRyYW5zZm9ybT0idHJhbnNsYXRlKDQzMy4zOTA2MjUsIDQ2NC4zMzMzNDM1MDU4NTk0KSIgaWQ9IlBsYXRlZm9ybWVfV2ViIiBjbGFzcz0ibm9kZSI+PHJlY3QgaGVpZ2h0PSI0MCIgd2lkdGg9IjE1MC43ODEyNSIgeT0iLTIwIiB4PSItNzUuMzkwNjI1IiBzdHlsZT0iIiBjbGFzcz0iYmFzaWMgbGFiZWwtY29udGFpbmVyIj48L3JlY3Q+PGcgdHJhbnNmb3JtPSJ0cmFuc2xhdGUoLTU5LjM5MDYyNSwgLTEyKSIgc3R5bGU9IiIgY2xhc3M9ImxhYmVsIj48cmVjdD48L3JlY3Q+PGZvcmVpZ25PYmplY3QgaGVpZ2h0PSIyNCIgd2lkdGg9IjExOC43ODEyNSI+PGRpdiBzdHlsZT0iZGlzcGxheTogdGFibGUtY2VsbDsgd2hpdGUtc3BhY2U6IG5vd3JhcDsgbGluZS1oZWlnaHQ6IDEuNTsgbWF4LXdpZHRoOiAyMDBweDsgdGV4dC1hbGlnbjogY2VudGVyOyIgeG1sbnM9Imh0dHA6Ly93d3cudzMub3JnLzE5OTkveGh0bWwiPjxzcGFuIGNsYXNzPSJub2RlTGFiZWwiPjxwPlBsYXRlZm9ybWVfV2ViPC9wPjwvc3Bhbj48L2Rpdj48L2ZvcmVpZ25PYmplY3Q+PC9nPjwvZz48ZyB0cmFuc2Zvcm09InRyYW5zbGF0ZSg1NTAuNzgxMjUsIDApIiBjbGFzcz0icm9vdCI+PGcgY2xhc3M9ImNsdXN0ZXJzIj48ZyBkYXRhLWxvb2s9ImNsYXNzaWMiIGlkPSJQcm9mZXNzZXVyIiBjbGFzcz0iY2x1c3RlciI+PHJlY3QgaGVpZ2h0PSI5MTIuNjY2NjY0MTIzNTM1MiIgd2lkdGg9IjMwMCIgeT0iOCIgeD0iOCIgc3R5bGU9IiI+PC9yZWN0PjxnIHRyYW5zZm9ybT0idHJhbnNsYXRlKDEyMC42NDcxMzI4NzM1MzUxNiwgOCkiIGNsYXNzPSJjbHVzdGVyLWxhYmVsIj48Zz48cmVjdCBzdHlsZT0ic3Ryb2tlOiBub25lIiBjbGFzcz0iYmFja2dyb3VuZCI+PC9yZWN0Pjx0ZXh0IHN0eWxlPSIiIHk9Ii0xMC4xIj48dHNwYW4gZHk9IjEuMWVtIiB5PSItMC4xZW0iIHg9IjAiIGNsYXNzPSJ0ZXh0LW91dGVyLXRzcGFuIj48dHNwYW4gZm9udC13ZWlnaHQ9Im5vcm1hbCIgY2xhc3M9InRleHQtaW5uZXItdHNwYW4iIGZvbnQtc3R5bGU9Im5vcm1hbCI+UHJvZmVzc2V1cjwvdHNwYW4+PC90c3Bhbj48L3RleHQ+PC9nPjwvZz48L2c+PC9nPjxnIGNsYXNzPSJlZGdlUGF0aHMiPjxwYXRoIG1hcmtlci1lbmQ9InVybCgjZ2VNZXJtYWlkT3V0cHV0LTE3NDE2NTQzNjcyNzRfZmxvd2NoYXJ0LXYyLXBvaW50RW5kKSIgc3R5bGU9IiIgY2xhc3M9ImVkZ2UtdGhpY2tuZXNzLW5vcm1hbCBlZGdlLXBhdHRlcm4tc29saWQgZWRnZS10aGlja25lc3Mtbm9ybWFsIGVkZ2UtcGF0dGVybi1zb2xpZCBmbG93Y2hhcnQtbGluayIgaWQ9IkxfQV9VQzBfMCIgZD0iTTE1OCw5OS41TDE1OCwxMDcuNjM5QzE1OCwxMTUuNzc4LDE1OCwxMzIuMDU2LDE1OCwxNDcuNjY3QzE1OCwxNjMuMjc4LDE1OCwxNzguMjIyLDE1OCwxODUuNjk0TDE1OCwxOTMuMTY3Ij48L3BhdGg+PHBhdGggbWFya2VyLWVuZD0idXJsKCNnZU1lcm1haWRPdXRwdXQtMTc0MTY1NDM2NzI3NF9mbG93Y2hhcnQtdjItcG9pbnRFbmQpIiBzdHlsZT0iIiBjbGFzcz0iZWRnZS10aGlja25lc3Mtbm9ybWFsIGVkZ2UtcGF0dGVybi1zb2xpZCBlZGdlLXRoaWNrbmVzcy1ub3JtYWwgZWRnZS1wYXR0ZXJuLXNvbGlkIGZsb3djaGFydC1saW5rIiBpZD0iTF9VQzBfVUMxXzEiIGQ9Ik0xNTgsMjUxLjE2N0wxNTgsMjU5LjMwNkMxNTgsMjY3LjQ0NCwxNTgsMjgzLjcyMiwxNTgsMjk5LjMzM0MxNTgsMzE0Ljk0NCwxNTgsMzI5Ljg4OSwxNTgsMzM3LjM2MUwxNTgsMzQ0LjgzMyI+PC9wYXRoPjxwYXRoIG1hcmtlci1lbmQ9InVybCgjZ2VNZXJtYWlkT3V0cHV0LTE3NDE2NTQzNjcyNzRfZmxvd2NoYXJ0LXYyLXBvaW50RW5kKSIgc3R5bGU9IiIgY2xhc3M9ImVkZ2UtdGhpY2tuZXNzLW5vcm1hbCBlZGdlLXBhdHRlcm4tc29saWQgZWRnZS10aGlja25lc3Mtbm9ybWFsIGVkZ2UtcGF0dGVybi1zb2xpZCBmbG93Y2hhcnQtbGluayIgaWQ9IkxfVUMxX1VDMl8yIiBkPSJNMTU4LDQwMi44MzNMMTU4LDQxMC45NzJDMTU4LDQxOS4xMTEsMTU4LDQzNS4zODksMTU4LDQ1MUMxNTgsNDY2LjYxMSwxNTgsNDgxLjU1NiwxNTgsNDg5LjAyOEwxNTgsNDk2LjUiPjwvcGF0aD48cGF0aCBtYXJrZXItZW5kPSJ1cmwoI2dlTWVybWFpZE91dHB1dC0xNzQxNjU0MzY3Mjc0X2Zsb3djaGFydC12Mi1wb2ludEVuZCkiIHN0eWxlPSIiIGNsYXNzPSJlZGdlLXRoaWNrbmVzcy1ub3JtYWwgZWRnZS1wYXR0ZXJuLXNvbGlkIGVkZ2UtdGhpY2tuZXNzLW5vcm1hbCBlZGdlLXBhdHRlcm4tc29saWQgZmxvd2NoYXJ0LWxpbmsiIGlkPSJMX1VDMl9VQzNfMyIgZD0iTTE1OCw1NzguNUwxNTgsNTg2LjYzOUMxNTgsNTk0Ljc3OCwxNTgsNjExLjA1NiwxNTgsNjI2LjY2N0MxNTgsNjQyLjI3OCwxNTgsNjU3LjIyMiwxNTgsNjY0LjY5NEwxNTgsNjcyLjE2NyI+PC9wYXRoPjxwYXRoIG1hcmtlci1lbmQ9InVybCgjZ2VNZXJtYWlkT3V0cHV0LTE3NDE2NTQzNjcyNzRfZmxvd2NoYXJ0LXYyLXBvaW50RW5kKSIgc3R5bGU9IiIgY2xhc3M9ImVkZ2UtdGhpY2tuZXNzLW5vcm1hbCBlZGdlLXBhdHRlcm4tc29saWQgZWRnZS10aGlja25lc3Mtbm9ybWFsIGVkZ2UtcGF0dGVybi1zb2xpZCBmbG93Y2hhcnQtbGluayIgaWQ9IkxfVUMzX1VDNF80IiBkPSJNMTU4LDc1NC4xNjdMMTU4LDc2MC40MTdDMTU4LDc2Ni42NjcsMTU4LDc3OS4xNjcsMTU4LDc5MUMxNTgsODAyLjgzMywxNTgsODE0LDE1OCw4MTkuNTgzTDE1OCw4MjUuMTY3Ij48L3BhdGg+PC9nPjxnIGNsYXNzPSJlZGdlTGFiZWxzIj48Zz48cmVjdCBzdHlsZT0ic3Ryb2tlOiBub25lIiBjbGFzcz0iYmFja2dyb3VuZCI+PC9yZWN0PjwvZz48ZyB0cmFuc2Zvcm09InRyYW5zbGF0ZSgxNTgsIDE0OC4zMzMzMzMwMTU0NDE5KSIgY2xhc3M9ImVkZ2VMYWJlbCI+PGcgdHJhbnNmb3JtPSJ0cmFuc2xhdGUoLTg5LjY3NzA4NTg3NjQ2NDg0LCAtMTEuMzMzMzMzMDE1NDQxODk1KSIgY2xhc3M9ImxhYmVsIj48Zz48cmVjdCBoZWlnaHQ9IjIyLjY2NjY2NzkzODIzMjQyMiIgd2lkdGg9IjE3OS4zNTQxNzE3NTI5Mjk3IiB5PSItMS4zMzMzMzIwNjE3Njc1NzgxIiB4PSItMiIgc3R5bGU9IiIgY2xhc3M9ImJhY2tncm91bmQiPjwvcmVjdD48dGV4dCBzdHlsZT0iIiB5PSItMTAuMSI+PHRzcGFuIGR5PSIxLjFlbSIgeT0iLTAuMWVtIiB4PSIwIiBjbGFzcz0idGV4dC1vdXRlci10c3BhbiI+PHRzcGFuIGZvbnQtd2VpZ2h0PSJub3JtYWwiIGNsYXNzPSJ0ZXh0LWlubmVyLXRzcGFuIiBmb250LXN0eWxlPSJub3JtYWwiPlMnaW5zY3JpcmU8L3RzcGFuPjx0c3BhbiBmb250LXdlaWdodD0ibm9ybWFsIiBjbGFzcz0idGV4dC1pbm5lci10c3BhbiIgZm9udC1zdHlsZT0ibm9ybWFsIj4gLzwvdHNwYW4+PHRzcGFuIGZvbnQtd2VpZ2h0PSJub3JtYWwiIGNsYXNzPSJ0ZXh0LWlubmVyLXRzcGFuIiBmb250LXN0eWxlPSJub3JtYWwiPiBTZTwvdHNwYW4+PHRzcGFuIGZvbnQtd2VpZ2h0PSJub3JtYWwiIGNsYXNzPSJ0ZXh0LWlubmVyLXRzcGFuIiBmb250LXN0eWxlPSJub3JtYWwiPiBjb25uZWN0ZXI8L3RzcGFuPjwvdHNwYW4+PC90ZXh0PjwvZz48L2c+PC9nPjxnIHRyYW5zZm9ybT0idHJhbnNsYXRlKDE1OCwgMjk5Ljk5OTk5OTA0NjMyNTcpIiBjbGFzcz0iZWRnZUxhYmVsIj48ZyB0cmFuc2Zvcm09InRyYW5zbGF0ZSgtNzEuNDYzNTQ2NzUyOTI5NjksIC0xMS4zMzMzMzMwMTU0NDE4OTUpIiBjbGFzcz0ibGFiZWwiPjxnPjxyZWN0IGhlaWdodD0iMjIuNjY2NjY3OTM4MjMyNDIyIiB3aWR0aD0iMTQyLjkyNzA5MzUwNTg1OTM4IiB5PSItMS4zMzMzMzIwNjE3Njc1NzgxIiB4PSItMiIgc3R5bGU9IiIgY2xhc3M9ImJhY2tncm91bmQiPjwvcmVjdD48dGV4dCBzdHlsZT0iIiB5PSItMTAuMSI+PHRzcGFuIGR5PSIxLjFlbSIgeT0iLTAuMWVtIiB4PSIwIiBjbGFzcz0idGV4dC1vdXRlci10c3BhbiI+PHRzcGFuIGZvbnQtd2VpZ2h0PSJub3JtYWwiIGNsYXNzPSJ0ZXh0LWlubmVyLXRzcGFuIiBmb250LXN0eWxlPSJub3JtYWwiPkNyw6llcjwvdHNwYW4+PHRzcGFuIGZvbnQtd2VpZ2h0PSJub3JtYWwiIGNsYXNzPSJ0ZXh0LWlubmVyLXRzcGFuIiBmb250LXN0eWxlPSJub3JtYWwiPiB1bjwvdHNwYW4+PHRzcGFuIGZvbnQtd2VpZ2h0PSJub3JtYWwiIGNsYXNzPSJ0ZXh0LWlubmVyLXRzcGFuIiBmb250LXN0eWxlPSJub3JtYWwiPiBDbGFzc3Jvb208L3RzcGFuPjwvdHNwYW4+PC90ZXh0PjwvZz48L2c+PC9nPjxnIHRyYW5zZm9ybT0idHJhbnNsYXRlKDE1OCwgNDUxLjY2NjY2NTA3NzIwOTUpIiBjbGFzcz0iZWRnZUxhYmVsIj48ZyB0cmFuc2Zvcm09InRyYW5zbGF0ZSgtODkuMTQ5NzQyMTI2NDY0ODQsIC0xMS4zMzMzMzMwMTU0NDE4OTUpIiBjbGFzcz0ibGFiZWwiPjxnPjxyZWN0IGhlaWdodD0iMjIuNjY2NjY3OTM4MjMyNDIyIiB3aWR0aD0iMTc4LjI5OTQ4NDI1MjkyOTciIHk9Ii0xLjMzMzMzMjA2MTc2NzU3ODEiIHg9Ii0yLjY2NjY2NjY4NjUzNDg4MTYiIHN0eWxlPSIiIGNsYXNzPSJiYWNrZ3JvdW5kIj48L3JlY3Q+PHRleHQgc3R5bGU9IiIgeT0iLTEwLjEiPjx0c3BhbiBkeT0iMS4xZW0iIHk9Ii0wLjFlbSIgeD0iMCIgY2xhc3M9InRleHQtb3V0ZXItdHNwYW4iPjx0c3BhbiBmb250LXdlaWdodD0ibm9ybWFsIiBjbGFzcz0idGV4dC1pbm5lci10c3BhbiIgZm9udC1zdHlsZT0ibm9ybWFsIj5Bam91dGVyPC90c3Bhbj48dHNwYW4gZm9udC13ZWlnaHQ9Im5vcm1hbCIgY2xhc3M9InRleHQtaW5uZXItdHNwYW4iIGZvbnQtc3R5bGU9Im5vcm1hbCI+IGRlczwvdHNwYW4+PHRzcGFuIGZvbnQtd2VpZ2h0PSJub3JtYWwiIGNsYXNzPSJ0ZXh0LWlubmVyLXRzcGFuIiBmb250LXN0eWxlPSJub3JtYWwiPiBleHDDqXJpZW5jZXM8L3RzcGFuPjwvdHNwYW4+PC90ZXh0PjwvZz48L2c+PC9nPjxnIHRyYW5zZm9ybT0idHJhbnNsYXRlKDE1OCwgNjI3LjMzMzMzMTEwODA5MzMpIiBjbGFzcz0iZWRnZUxhYmVsIj48ZyB0cmFuc2Zvcm09InRyYW5zbGF0ZSgtNjAuMTI1MDAzODE0Njk3MjY2LCAtMTEuMzMzMzMzMDE1NDQxODk1KSIgY2xhc3M9ImxhYmVsIj48Zz48cmVjdCBoZWlnaHQ9IjIyLjY2NjY2NzkzODIzMjQyMiIgd2lkdGg9IjEyMC4yNTAwMDc2MjkzOTQ1MyIgeT0iLTEuMzMzMzMyMDYxNzY3NTc4MSIgeD0iLTIiIHN0eWxlPSIiIGNsYXNzPSJiYWNrZ3JvdW5kIj48L3JlY3Q+PHRleHQgc3R5bGU9IiIgeT0iLTEwLjEiPjx0c3BhbiBkeT0iMS4xZW0iIHk9Ii0wLjFlbSIgeD0iMCIgY2xhc3M9InRleHQtb3V0ZXItdHNwYW4iPjx0c3BhbiBmb250LXdlaWdodD0ibm9ybWFsIiBjbGFzcz0idGV4dC1pbm5lci10c3BhbiIgZm9udC1zdHlsZT0ibm9ybWFsIj5FeHBvcnRlcjwvdHNwYW4+PHRzcGFuIGZvbnQtd2VpZ2h0PSJub3JtYWwiIGNsYXNzPSJ0ZXh0LWlubmVyLXRzcGFuIiBmb250LXN0eWxlPSJub3JtYWwiPiBlbjwvdHNwYW4+PHRzcGFuIGZvbnQtd2VpZ2h0PSJub3JtYWwiIGNsYXNzPSJ0ZXh0LWlubmVyLXRzcGFuIiBmb250LXN0eWxlPSJub3JtYWwiPiAuZ2xiPC90c3Bhbj48L3RzcGFuPjwvdGV4dD48L2c+PC9nPjwvZz48ZyBjbGFzcz0iZWRnZUxhYmVsIj48ZyB0cmFuc2Zvcm09InRyYW5zbGF0ZSgwLCAwKSIgY2xhc3M9ImxhYmVsIj48dGV4dCB5PSItMTAuMSI+PHRzcGFuIGR5PSIxLjFlbSIgeT0iLTAuMWVtIiB4PSIwIiBjbGFzcz0idGV4dC1vdXRlci10c3BhbiI+PC90c3Bhbj48L3RleHQ+PC9nPjwvZz48L2c+PGcgY2xhc3M9Im5vZGVzIj48ZyB0cmFuc2Zvcm09InRyYW5zbGF0ZSgxNTgsIDcyLjUpIiBpZD0iZmxvd2NoYXJ0LUEtMTAyIiBjbGFzcz0ibm9kZSBkZWZhdWx0Ij48cmVjdCBoZWlnaHQ9IjU0IiB3aWR0aD0iMTM0LjI2MDQyMTc1MjkyOTciIHk9Ii0yNyIgeD0iLTY3LjEzMDIxMDg3NjQ2NDg0IiBzdHlsZT0iIiBjbGFzcz0iYmFzaWMgbGFiZWwtY29udGFpbmVyIj48L3JlY3Q+PGcgdHJhbnNmb3JtPSJ0cmFuc2xhdGUoLTM3LjEzMDIxMDg3NjQ2NDg0NCwgLTEyKSIgc3R5bGU9IiIgY2xhc3M9ImxhYmVsIj48cmVjdD48L3JlY3Q+PGZvcmVpZ25PYmplY3QgaGVpZ2h0PSIyNCIgd2lkdGg9Ijc0LjI2MDQyMTc1MjkyOTY5Ij48ZGl2IHN0eWxlPSJkaXNwbGF5OiB0YWJsZS1jZWxsOyB3aGl0ZS1zcGFjZTogbm93cmFwOyBsaW5lLWhlaWdodDogMS41OyBtYXgtd2lkdGg6IDIwMHB4OyB0ZXh0LWFsaWduOiBjZW50ZXI7IiB4bWxucz0iaHR0cDovL3d3dy53My5vcmcvMTk5OS94aHRtbCI+PHNwYW4gY2xhc3M9Im5vZGVMYWJlbCI+PHA+UHJvZmVzc2V1cjwvcD48L3NwYW4+PC9kaXY+PC9mb3JlaWduT2JqZWN0PjwvZz48L2c+PGcgdHJhbnNmb3JtPSJ0cmFuc2xhdGUoMTU4LCAyMjQuMTY2NjY2MDMwODgzOCkiIGlkPSJmbG93Y2hhcnQtVUMwLTEwMyIgY2xhc3M9Im5vZGUgZGVmYXVsdCI+PHJlY3QgaGVpZ2h0PSI1NCIgd2lkdGg9IjIyNS43NjA0MjE3NTI5Mjk3IiB5PSItMjciIHg9Ii0xMTIuODgwMjEwODc2NDY0ODQiIHJ5PSI1IiByeD0iNSIgc3R5bGU9IiIgY2xhc3M9ImJhc2ljIGxhYmVsLWNvbnRhaW5lciI+PC9yZWN0PjxnIHRyYW5zZm9ybT0idHJhbnNsYXRlKC05Ny44ODAyMTA4NzY0NjQ4NCwgLTEyKSIgc3R5bGU9IiIgY2xhc3M9ImxhYmVsIj48cmVjdD48L3JlY3Q+PGZvcmVpZ25PYmplY3QgaGVpZ2h0PSIyNCIgd2lkdGg9IjE5NS43NjA0MjE3NTI5Mjk3Ij48ZGl2IHN0eWxlPSJkaXNwbGF5OiB0YWJsZS1jZWxsOyB3aGl0ZS1zcGFjZTogbm93cmFwOyBsaW5lLWhlaWdodDogMS41OyBtYXgtd2lkdGg6IDIwMHB4OyB0ZXh0LWFsaWduOiBjZW50ZXI7IiB4bWxucz0iaHR0cDovL3d3dy53My5vcmcvMTk5OS94aHRtbCI+PHNwYW4gY2xhc3M9Im5vZGVMYWJlbCI+PHA+QXV0aGVudGlmaWNhdGlvbiBQcm9mZXNzZXVyPC9wPjwvc3Bhbj48L2Rpdj48L2ZvcmVpZ25PYmplY3Q+PC9nPjwvZz48ZyB0cmFuc2Zvcm09InRyYW5zbGF0ZSgxNTgsIDM3NS44MzMzMzIwNjE3Njc2KSIgaWQ9ImZsb3djaGFydC1VQzEtMTA1IiBjbGFzcz0ibm9kZSBkZWZhdWx0Ij48cmVjdCBoZWlnaHQ9IjU0IiB3aWR0aD0iMTY4LjkwNjI1IiB5PSItMjciIHg9Ii04NC40NTMxMjUiIHJ5PSI1IiByeD0iNSIgc3R5bGU9IiIgY2xhc3M9ImJhc2ljIGxhYmVsLWNvbnRhaW5lciI+PC9yZWN0PjxnIHRyYW5zZm9ybT0idHJhbnNsYXRlKC02OS40NTMxMjUsIC0xMikiIHN0eWxlPSIiIGNsYXNzPSJsYWJlbCI+PHJlY3Q+PC9yZWN0Pjxmb3JlaWduT2JqZWN0IGhlaWdodD0iMjQiIHdpZHRoPSIxMzguOTA2MjUiPjxkaXYgc3R5bGU9ImRpc3BsYXk6IHRhYmxlLWNlbGw7IHdoaXRlLXNwYWNlOiBub3dyYXA7IGxpbmUtaGVpZ2h0OiAxLjU7IG1heC13aWR0aDogMjAwcHg7IHRleHQtYWxpZ246IGNlbnRlcjsiIHhtbG5zPSJodHRwOi8vd3d3LnczLm9yZy8xOTk5L3hodG1sIj48c3BhbiBjbGFzcz0ibm9kZUxhYmVsIj48cD5DcsOpZXIgdW4gQ2xhc3Nyb29tPC9wPjwvc3Bhbj48L2Rpdj48L2ZvcmVpZ25PYmplY3Q+PC9nPjwvZz48ZyB0cmFuc2Zvcm09InRyYW5zbGF0ZSgxNTgsIDUzOS40OTk5OTgwOTI2NTE0KSIgaWQ9ImZsb3djaGFydC1VQzItMTA3IiBjbGFzcz0ibm9kZSBkZWZhdWx0Ij48cmVjdCBoZWlnaHQ9Ijc4IiB3aWR0aD0iMjMwIiB5PSItMzkiIHg9Ii0xMTUiIHJ5PSI1IiByeD0iNSIgc3R5bGU9IiIgY2xhc3M9ImJhc2ljIGxhYmVsLWNvbnRhaW5lciI+PC9yZWN0PjxnIHRyYW5zZm9ybT0idHJhbnNsYXRlKC0xMDAsIC0yNCkiIHN0eWxlPSIiIGNsYXNzPSJsYWJlbCI+PHJlY3Q+PC9yZWN0Pjxmb3JlaWduT2JqZWN0IGhlaWdodD0iNDgiIHdpZHRoPSIyMDAiPjxkaXYgc3R5bGU9ImRpc3BsYXk6IHRhYmxlOyB3aGl0ZS1zcGFjZTogYnJlYWstc3BhY2VzOyBsaW5lLWhlaWdodDogMS41OyBtYXgtd2lkdGg6IDIwMHB4OyB0ZXh0LWFsaWduOiBjZW50ZXI7IHdpZHRoOiAyMDBweDsiIHhtbG5zPSJodHRwOi8vd3d3LnczLm9yZy8xOTk5L3hodG1sIj48c3BhbiBjbGFzcz0ibm9kZUxhYmVsIj48cD5DcsOpZXIgdW5lIEV4cMOpcmllbmNlIGF2ZWMgVW5pdHkgKyBBUkNvcmU8L3A+PC9zcGFuPjwvZGl2PjwvZm9yZWlnbk9iamVjdD48L2c+PC9nPjxnIHRyYW5zZm9ybT0idHJhbnNsYXRlKDE1OCwgNzE1LjE2NjY2NDEyMzUzNTIpIiBpZD0iZmxvd2NoYXJ0LVVDMy0xMDkiIGNsYXNzPSJub2RlIGRlZmF1bHQiPjxyZWN0IGhlaWdodD0iNzgiIHdpZHRoPSIyMzAiIHk9Ii0zOSIgeD0iLTExNSIgcnk9IjUiIHJ4PSI1IiBzdHlsZT0iIiBjbGFzcz0iYmFzaWMgbGFiZWwtY29udGFpbmVyIj48L3JlY3Q+PGcgdHJhbnNmb3JtPSJ0cmFuc2xhdGUoLTEwMCwgLTI0KSIgc3R5bGU9IiIgY2xhc3M9ImxhYmVsIj48cmVjdD48L3JlY3Q+PGZvcmVpZ25PYmplY3QgaGVpZ2h0PSI0OCIgd2lkdGg9IjIwMCI+PGRpdiBzdHlsZT0iZGlzcGxheTogdGFibGU7IHdoaXRlLXNwYWNlOiBicmVhay1zcGFjZXM7IGxpbmUtaGVpZ2h0OiAxLjU7IG1heC13aWR0aDogMjAwcHg7IHRleHQtYWxpZ246IGNlbnRlcjsgd2lkdGg6IDIwMHB4OyIgeG1sbnM9Imh0dHA6Ly93d3cudzMub3JnLzE5OTkveGh0bWwiPjxzcGFuIGNsYXNzPSJub2RlTGFiZWwiPjxwPlTDqWzDqXZlcnNlciB1bmUgRXhww6lyaWVuY2UgZGFucyB1biBDbGFzc3Jvb208L3A+PC9zcGFuPjwvZGl2PjwvZm9yZWlnbk9iamVjdD48L2c+PC9nPjxnIHRyYW5zZm9ybT0idHJhbnNsYXRlKDE1OCwgODU2LjE2NjY2NDEyMzUzNTIpIiBpZD0iZmxvd2NoYXJ0LVVDNC0xMTEiIGNsYXNzPSJub2RlIGRlZmF1bHQiPjxyZWN0IGhlaWdodD0iNTQiIHdpZHRoPSIxODcuNjM1NDIxNzUyOTI5NyIgeT0iLTI3IiB4PSItOTMuODE3NzEwODc2NDY0ODQiIHJ5PSI1IiByeD0iNSIgc3R5bGU9IiIgY2xhc3M9ImJhc2ljIGxhYmVsLWNvbnRhaW5lciI+PC9yZWN0PjxnIHRyYW5zZm9ybT0idHJhbnNsYXRlKC03OC44MTc3MTA4NzY0NjQ4NCwgLTEyKSIgc3R5bGU9IiIgY2xhc3M9ImxhYmVsIj48cmVjdD48L3JlY3Q+PGZvcmVpZ25PYmplY3QgaGVpZ2h0PSIyNCIgd2lkdGg9IjE1Ny42MzU0MjE3NTI5Mjk3Ij48ZGl2IHN0eWxlPSJkaXNwbGF5OiB0YWJsZS1jZWxsOyB3aGl0ZS1zcGFjZTogbm93cmFwOyBsaW5lLWhlaWdodDogMS41OyBtYXgtd2lkdGg6IDIwMHB4OyB0ZXh0LWFsaWduOiBjZW50ZXI7IiB4bWxucz0iaHR0cDovL3d3dy53My5vcmcvMTk5OS94aHRtbCI+PHNwYW4gY2xhc3M9Im5vZGVMYWJlbCI+PHA+R8OpcmVyIHNlcyBFeHDDqXJpZW5jZXM8L3A+PC9zcGFuPjwvZGl2PjwvZm9yZWlnbk9iamVjdD48L2c+PC9nPjwvZz48L2c+PC9nPjwvZz48L2c+PHRleHQgY2xhc3M9ImZsb3djaGFydFRpdGxlVGV4dCIgeT0iLTI1IiB4PSI0MzMuMzkwNjI1IiB0ZXh0LWFuY2hvcj0ibWlkZGxlIj5BUjRMZWFybjwvdGV4dD48L3N2Zz4=;" vertex="1" parent="1">
                        <mxGeometry x="-230" y="-60" width="1036.78" height="978.3333740234375" as="geometry"/>
                    </mxCell>
                </UserObject>
            </root>
        </mxGraphModel>
    </diagram>
</mxfile>